<mxfile host="app.diagrams.net" modified="2021-12-04T06:08:18.978Z" agent="5.0 (Windows NT 10.0; Win64; x64) AppleWebKit/537.36 (KHTML, like Gecko) Chrome/96.0.4664.45 Safari/537.36" etag="lVa3h9IPgJsyGLEtghD_" version="15.8.9" type="github">
  <diagram id="v_0b9nZa_BAAOyStt3nX" name="Page-1">
    <mxGraphModel dx="1422" dy="705" grid="1" gridSize="10" guides="1" tooltips="1" connect="1" arrows="1" fold="1" page="1" pageScale="1" pageWidth="850" pageHeight="1100" math="0" shadow="0">
      <root>
        <mxCell id="0" />
        <mxCell id="1" parent="0" />
        <mxCell id="gPWtYPe_malXiGD7fy5B-1" value="" style="shape=image;verticalLabelPosition=bottom;labelBackgroundColor=#ffffff;verticalAlign=top;aspect=fixed;imageAspect=0;image=data:image/png,iVBORw0KGgoAAAANSUhEUgAAAQYAAAKrCAYAAAATXyORAAAAAXNSR0IArs4c6QAAAARnQU1BAACxjwv8YQUAAAAJcEhZcwAADsMAAA7DAcdvqGQAAKq7SURBVHhe7b0JvC1ZWR/67drD2We88+2+3fRAD0A3kkbpCArRoC+Y2BiV5PmAiPn5gtjCz0fwvbxEVKJEMQIBG0UJ0ZjEJ/h4CaIMRhCcQBpshEZpGppueh5u377DGfe83/f/hqra++xz+5x7zj333qrvX/vba9Vaq1atqlrfv761atWqypd+418O19ptarVatLKyQouLSzTod+jLb/97FAgEyolkOByKxxyq1apUrVZ1JRAIlBLJkIZUYQ8IAuSQJFWWRGMDgUApkVoMTA3yL6RQAVUEAoGyglkAhMBSYcvBxUgiEAiUE5UvvvvVwwFbDZDFxUVaW1uj1ZVlelbnFksSCBQbH5xZNV/AoRaDWQrwM0VQrVbT2EAgUEpIH0PWz6CoJNHHEAiUGenjByUHFnaDFgKBckOfSpjFIF4EJjGOIRAoM8RiUG4AJYgnnlYGAiWHDHByuMUwGAw0IBAIlBKJGgl5elCCCATKgkos6xazGMAOfIK4CYHAeFciECg3kuFgyE0HJYcKM0O1mgQxBMoF9KmFjEj6uDKP8XENgUCxMUEzSi6Vz73zlTIkGoOalpeXZV4GEMPVJ36RE5wfmL5qhmaeNkvNK6apfrhBtYUaVWo4gMCFgGFvSL3FHnWOtql13xqtfnWF1u7ZeBgymrO7iQ/PtswXcEwkhkF/QNec+veW5Nxh39/fTwvfso8aTAaBYgEkcerTJ+nEnz5hIZOxGyQRxLAe52VTYv45e+jKn7mGDn7vRUEKBUXj8BQd4uv7VL7O889ZIHSC69MxXRxZyFmsk5kFHWIy0WLodbv0tKW3cIrdx+EfOEJ7vmWvrSl6J9bo+AfvpFOfvI9W//Yxaj+0SIO1rsUGznck03WaunSBZr7hItrzgito//c8g2r7pi1WceLTx+mR9z2E9/m4XqJ2mis/XXfstBXx4bm2+QKOicTQ7XTo6ctvtSS7A/QZXPIvLqOZZ8xaCJubjyzRQ7/8l/TYb33OQgJFwUU//By69F9+KzWOzFsI0dKdi3Tvb9xDlR5MWTVm4eJpGZAnhJ0kh48EMazDBk0J8+wixknh6H/7PH3hee8KUigocF1xfXGdHfPPWKArXvlU6vLSGXapz0uPlz4N1jUnzmrTIkBJLUkIoxaSwZCFqMZMnFQm8sVZA5oPeVK472c/Tvf8X38YzYWCA9cX1xnX27HwjD10yQ9cRu1hi6VD3SETgwjTBMtgqCQB7Bg5wPgIGZGkntSoOmTDrA9iGDIxJFTjsN0COhrzfQqoJI/82mdsLVAG4HrnyeGib72Y5m/cQ2vDtYwgzHIYVJgO0ElpZi3IYccIIpAikYmbxrCbb1ce+O5D5tPmQ5BCOYHrnm9WXHnTVbQyWKVVJoe1ARPEoMXWQ0etB16GRhA7AfRXxDK6cJvh3LEtxinU99fFj47Ge3/mj8UfKCdw/VEPgJkDM3TJd1xCK0OQwyqx3cBLR6wHEAOaFXlyCKthZ5HgvLpp5rJbwOAlB54+RJ9CuYHrj3rguOJbn0rLg2UmhxW2Hlaoxc2KDhbrmNwxchhrX4cwMYjFMEYG/njobALDnH3wEsYpxNOHAIB6gPoA7Ll4D81dPSdWg1gO3LRAs6IzZNvByME7I50UzpgcAiNIcBpFQA5mMYzxxFkB3n1wYPBSIODI14fDT79YCQHkwFYDiKElxKBPLKRLclJHWWBbSPIs4L7d6HzEC1EOjGgMBBz5+nD4qYelj2GFCWGNmxK6oL+hzaTAVgOTw8AfY1pdDqth+9ABC+vO49lnBrwl6cAw50DAka8P+y7eJ82GFp5OMCXoU4pVag+YGthqgM0wmDAAKrA9JBgO3esx8/b7EtDrMQ/z+tkGXp124N2HQMCRrw9zC3MyEhJLm5sQrQFbDOzCnzYnYDWMkcPWSMJ63EJSkenj+wM+rZgAlv0DJoh+T0nibCI/n0I8jQjkka8PtXpNOhlhNaiVYKQgTydADNYJCWLIqtSWMKoSIZDdHftcKNxENxx9PT0PctfL6YiFBnYePhwab06o5aDjGYQYeNEhT+hn6Gvn+ZasBcYkzSi5TCYGRF7guOpTprQbKO6TxZ8z3PKqrFxHf4Kuv9nCHU8WX0BA0WER9Fjx0WwAPYAU4JN1lv5QGxP43yovBNZjIjEUgBdGsedKOjzy8e6baP5a854xPky3H34T3Qq59j30iIXuLJq08IqbzK+46saD5isPoOxQerULQA5KEGhegBzk5SoQAhgBj9SsAm/WcsgPBY5Fl9I0JaZvzBTsyPufTqPThJzHuPZSusq8dPPLaf+2Ce3Cgz6G1CYCKEDIIWctDCpMC0IOnCL32HLTAJGEjMgGxIDYouAYrd3FzrVPN7P7ubTvWU2iUy2uWhPAyndjaqrn5VWZggpyfQyfctJ5Ll1/l4WheTKW143vf66l2xzW7jrG/wdpv2135EUXU4243KdkdTImlX+kqbSVMubS5o8/t81Wj+lMobSgC0hArAQQAohC/BIj8VtF/k4Ziy6lsBiWfvteJoEmzbyIK/HNV9PMHla6j3yFW6oT8K730G3eRDA5CmJhBT28jhxOA26+XPF/Ej2EPN4LBSeqveA76YaRJs2T4LbbaZFJoPasq1mxjdDu+godP2rxYzjy/p+g573xSqqdupfuy5cdZZlU9p0o4y5BOxWVILThAIJQYpC1vKXA97UtEUTuThmiIkOicRpHsYWTeiHgXXfTKhTsBTfQDa9gxWErYum1FrcJ3HObKg3IYX6zSgPl9L6HLy+n1kn9sq3cYT9DJ/6mpX0kn7qBFkBot33Y4sbAd/FLX8DEwVj7SNbncdqy70gZdwHeb8CKDzLQ+unEwBQg4U4cSFaw+nsOkCT1KiW1Kk6zsG69XmPRV6GLA1MwVo5ptNHveojukfCNkGsmQF527jr8Hvnoo6Kw09eiDKchtOvmmPAU0y87P8p+NuAv+JmdIAt8IA5dC1LYCSSra2vU7fVkgFN/wG039lcKeHJdwYjb6Iu/vcFdlyHm+NEbpHNy7b3WnDAz+5zArB2g98nbn4TQFGm5x+T2LVhJ5xvEClBOsNrJLWEmiXwTYwTFq8K7iqTd6aTDoWXUI0u3O7Fb7sJG2nfwNrrjXRa2DtaOB9jMPnpeKNJn6I5rVbFve8lpZrfKNQXyT2C2h89Qa4P+jPMDSgkgCOMMccNq2D64FcFNiapO0S3TyLPbbpd1Ou2cIuyZSx9pHrlsznznMZj4HvqkfVHp2htGOxDtKcKZdCquPeZfaZqj5nk0mEoaDWZFuNWgRHEmAJ2E5CXBWHR83drbbkmSyEtVZcU9z/+4PAnQpxDaTr/0WRJ13uORl7yNbn0DnsCM9TPgScUWO1wdyFOfyjRp4Y35/IqD9WoRUvn0218xHKBfgVl3eXGJhv0BnVpdo2dXfo2jzx6ufft15iMxkwOBPEBAjtf/CPu5flYrVapValTnpVlp0lxllhaq8zRfWaD5ZI5mKtM0VZmiqi3axEA1Pz0+th9POraHx9/w381XDCTdTlfepoQ5Js2JQZ8ajfheZCBQZlQ+/bZXDPtdbjowMbTX1qiHzsikRtesvNmSnB1c85ZnpK9ef/aKt8Sr14EU+NblN9/3r8Tf6/boDa9+w1m2GLbfWfn4G/4/cQ/SPxH3fMUx+h/iPlk5k9m5WbEQEj6J6GsQf3L2B0T2FrMnH/jgaSDgyNeHpVM6nfzZRNqu3oYUDcmpk6fkEWWv35PmRL8/kFmczjY6R7MnH/gKciDgyNeHY489br6ziEmavlUpGJL0sQ+sKXGHu2IxtO7TKcIBfBo9EHDk68MD9zxgvsBuIsk/+hVuYNkNYlj96or5iPZ/zzPMFwiM1oev3fE1862HPGLnCqt9CYGdRGoxYBFWgNWwC1i7ZzVtTtT2TdNFP/wc8QfKDdQD1Afg8Ucfp3vvulf845hMBUUczH9ukFkMwgtCD9LfsBs49emT5iO69F9+q/RGB8oLXH/UA8df/flnzWewuirNehgLsq4er8ZA2A/bh1oMtiiG8ohoN3DiT5+g7vGO+BtH5unKf/e/iD9QTuD6ox4AJ46doE9+9JPiB6TZwJD+MPFw5ZUmRLYA7roTODOoxWAiTQp28ZblbuHxD2dv6Rz+oW+kI68+z+YCCOwKcN1x/R0f+8BHzcdwMnAiqCT8D+H/HDkkEp6RyGaR5XDmS9GQsxgcw1090KW/PkUnPn3c1oiu+NnvDHIoGXC9cd0dn+UmxBdu/YKuuJJzBRWl50VowQlhaAQh/4asMgfOEMlwwGcRJ51PdJJgtFgizLtr4H0/8r6HaOnO7OtDqCRXvfUfRZ9DwYHri+ucJ4W7vvRV+sB/+z1by6BPHpwQuI7yIuMbuc7Cj3qLL844Pbi7KSjjbE8KhqTT6ciApmq1RlONKaqxm5puuwE+qfhY8b2/cQ8t3pnNcgqz8tm33hxPKwoKXFdc33zzAaTw27/y27Zm4LoopMBKjxuW0gH/V2oyPBprtYqSQ2pFsBvYHhLM3oSJWbrdLnU6XWqzyOfqzjLyjC4Xs0d097u+So/95aMWqh2ST/2l76Ibv/I6ubMc+L7rafqaA2FJXGDA9cJ1w/XDdcT1xHX1jkYAzYffevtvjY66NQV3ZRdyEGpgUhjKPy/6/oRRg6TfalNC8t/mcjbxwi9/A71myHLiqfRsBLzuqfRKrA+vo+99nSTZcVQ+9NM3DafqdaqxSUb9Aa2trlGbL84zB++wJGcP3rPhs/3K9wl5mX/OAl1501U0c2BG4gPFBZ4+oKMx7VNwgBRgLfACha8lSgN4SQovS80lszRXmaP5ZJ5mKzPyUlWj0hCSyNR1cwr7iYPbV+xHf/r/FXfzL1EdpO89cTE9Za+t5nHnCXrndQ/ZihLD9RjzdXKFPrXv6/QFEMPbZmmK+vTgT3yZfv/tmm4z2PRLVGg+TE2xsFtvNKhe04lbdhN+AatsKsI0fOK2Y/Tn//ZP6Yvv/wKdejRrXgSKAwxe+sj7Pkxv+TdvHiUFEIKTArvSfJAmBJMDL/VKXQQk4ERgjQutR3yv2SwhpEDy7cp2ACKo/C3LCTqB9Wfso1d+IpvE90+uQxwLSMHCzjaSapVPKTpwEnTg6Mix/DOKs4n0ArKDC491XGS2X/ii1+m+T9xHH3njh+iD/+H36TMf+gx9/Utfp5NPnNy1cRaBnQGuFywD9CF84oMfp3f/0n+kt//027JxCk4GRggpKeTqBNS/ziQwxWQAqwGC16+ZHqS/ATcVpE3r1AWJNq3YmL+pI1PqYaRNiS9faiFnH5WPvfEl0pRAx02/05VZnFrclHgW/aolObtwEoIrnx8b9uRLxmuDNVodrtKKyAqtDlZlHc2NLnUsbV+2k4nEUaEcqGCBCwe5ayd9CViss1E7F3GjaNA0NyFmkmluOsyKoEkhczAkTbmZIG26PS+bxScObb++PPpT22hKpE2HS+nlw320b6yJkDYlPN1uNCVSxeSL08cU8jJT9Lm5I4PzxWSUilCnJl/wJt8Z0H6cFv+0hKOSoBJgUSOTfRU1Jb1KyKW2u0/I+StyrUyZpckw1CsqfQpcD2Al4HprPWDBwvVBLIeErYakIen9ymO54MBNB7EIhBQYJ1t03xaU/WwgqdX4ApigbwEzRu8m/EJml9WaE0YA03yHwF0BFQLudDLDlaIpJiTSoN2Z0gMeW0GscmE95PwWvVa2zot3MsKPa4wmAyyFTPRmoU0JT6nXGwTjdemCQtrH8Lf0qT/pE+2dpecPr6UXWvS5APMAn1JMH4+FTyzIoVo7N52PcLWaJKL0WKa4cuAOMVOZoVkmBSEHJomsgqDyKEmocFXhSoa7Tcj5L3Kt+Irzmlw76TcQC4GvL1uJM7jmcnPQa491XHshBk6nlKD190zBtsu2ZafwhQ+2yN45poWz9ChyM0h6mL2p1ycMdOqyDAZD6Yw8VwA5+cXWZgPuGF5B0LYEQbDLMs1+WBRoYoh5CSsCZMIVRn2xnO+LNwm0Q1HJXvoSUuHrjT4Fvt5OCqgTI7YiOh63Yy1g2+3KDuHZ34N6DPRo8Rw2Jyp/9LPfJ52P+DRdt9XRCWErQ3rW8J2WZPeQ7+8YchnQuYgFHY6dIZcNy4Bl2KYOL+ikRHgPy7Cnn0M3Dsf20oy1PAPnF6DAok98eeRWwCtQcmlO8NJI1HIAYfC/EoiQh5EC3zS0+TFqLZwJMXz88Pabz4+9/nfF3ZFxDD5ewVbPRedj5aM/B2JoEGaK7rRBDC1Wsz4Tw9n9rsRG2IgcUKYuyMHIwAWkAOIAMQwqAx0sZV9B1rsICCLI4XyDXhtVYyEJXoQU0MTgxTsdYVUIQaCjUcIb/M90IP0TvBXng0XyNHer+PhFO0AMP7lVYjg32DQxfOIX/tdhswFiYIuh3aYWE0On36Xr+79iSXYX+Tu8kwMUXciBlR9Ll92uPLZUQpAFxGAL8pB/IQTL78zqTGCnkV7eTJnlHYchWwvchFWLQTufQRJoFMp6YoSQW3aCFIAghvUQYkibEmwxtFbXhBieOdidcQyTsI4ceBkIQaCpMNBmg1kR4kc4WwvalNAxDUoobjUownI4txi/FlhT1QY5sKKzBaBPJZQgZIEFwQIiUEtBmw5YHHn/meCPd4AYjhaNGP7nv/3e9X0MrFx/p/LrluTcwQnCXVgOQhK2aDPD1oQcOFaaEpye6wrSepUJSjg/kFdhXBNXclF3jGPgJbMLlAiwrmmMFHIEg/XtIohhPSp/+IZ/PJEYbkg2/Fb8rsJJAXDrQRauD2pBIN6aDr5m6UYxvh44dxhVZrUCGOgz4CU/vBnLJEIAELYTCGJYj8rH/t33D6dqDWtKtKmNpsQAQ6LPvcXgGFdyaRJwnYALa4FrjFgKns5T57fbmSoU2Ankr6aqft6vayALJJR1+WVXMO/fCXz8ou0/nn/sJ98rblGIIen3utTvd2nIZNDttml5ZZE6rexjMOcDtLrkKgYTgSzsaks0e8yF9ih6tKXDiv9dNCSWc7noVciuiV6X7EmEpLIRkLi+YknYtZbrbsuOA1luVwqGpMek0GdSkHsvu+3OGg16OnPz+YbxiiFrVnFQidQkHV3Pi1a5WM7VMumaQNZdvxwZALpWQO07j5HgIiSJDoWu1+vyUdtqrWbR5ye8okyqLPm4dQsqXMi5k9Ms4zhdXODso/KRN/yj4fRUk2pJwk2IFp08cVzads+q/qYlKTf2vea1dPCaj7HvtbT4uh+lxxD47R+iq7/v/+YGDGDhL/uPdO033yIh4xh87c/p7r+9NbfNJPwDWv3ALdT71utp4bAFOdbeTMde/2KdxEPwBbri7S+nhq2lOPoeuusXZfKvHPJpdR8P/ZmsBAwfv3gH+hj+TcH6GMACYHNM1IKXp+q1ukwMG9gIx+jS7zIFh8I6WaSA8t1Bd70uk7vfeZDoz15Md3vYZ187Ia0q7GO/yP4PvBldqoLOZ3k9TwogIFN0ibM8j33tHxAdfjld8TJNluJln8kRyMdo5lt3aw6gwIWMyod/5rvYYpimBjcfet0OLZ06RZgL9rrB+fNU4lxi3GKgn/Q7es6CAFKLYRN35SdLm7NIoPz36c2Ikd39R8MNnO8V9KO5cCaxN30bzeinIA1j5Q7sqMVQFCT9PiZn6cnsvDpJS39XZom+EFFjkphICruF9O7/WmpNqofvzZMC49tvpaaRQuez7yHtUr6FmuNWRSAwhmQw0NeuQQyYmw+CmZwC47iFZsRyYBx97mlIgc3177uezf1M1pn3Z4h9++8w3+aw7xs+Zn0aIJJnU8u+Bth41od0pqCAIN/ReaZL0VB5///9wmGjVpfOR7xhubR4iirVOn1jLTofgawpAbP/h6n2fWrKS4ci+g4cu9GUSLdzi2V9J2SWPotLy7qVMpYInziy/T61R//1e8R91cOvF/d8xbsveZO4T1bOZG5ujmq1qowixEdngBoTRWAc11Pvz55Ni+jkYyTXfNuOWQKbxnufO9YceDbdJ52P3kzIIdfpiLKK9SKkAHyMmt9wzPyBwHokGLuAb1Zizkf48Y2JWj1/DwrkceKdP0OrNjC08c2vpUu/Xf27g4yYGt98+ibKRVcaCciTk+zpxaI1J5Jr/gddpN5AYB2SnnyaTr9fmSEGlWyMg/TQH/njRPQnjJPD+j6Gq1+z+bvzRT/J2+TGO4AArn1T1idw4p23pBaCxMk+vDnxD6j3MDvcFJmzsRCDh56XG/9A9Ni9/qg0OiEDG6Pyxz//vUPMwVCtMBkMB9RZa1GlMU3PaP+yJQkEio3oY1gPuTHJW4qDAQ3k0SUeV+bffwsEAmVD4uMX0JxotVvUarXSTshAIFBOJHh5qtlsSsdjraodkOf7S1SBwE4iPx7hTJeiIYGFgGaEj3qUSVCiJREoE6DX25WCIakkNWrgU/gszakGzUxP8fq5++BMIBA490j6wyotLa0SvkiFt6e6ayu0trJo0YFAoIxIhsNEn8mjCcG+yrAvEggEyovEuxPEle4F+ArYaAoEAptGIpYCuIDd8dmYA4FAOSEWQ0oJ4Aj3BAKB0iJnMeCHvyCFQKDsyFkMwgz4BTcEAiWHv8SXAyaHNW8gECglkibmYGhM0RAvTiU1qjdnmRom8EUgECgNkosPHaSLDx+mTqdH9akmHXnKlZTE9PGBQKmRNKemaHZmRr4t0WerodGcppmZOYsOBAJlRLK8vEyrq2tUx6fp2FI4cfIEHT9+3KIDgUAZIcQwwxbDtddeS0972tPoMDcrpppTFh0IBMqIRF6zrpBM1HLs2OP0+LFj1G63LToQCJQR8rVrkALmYuj2evINS8wUHQgEyovkwIEDOnV8o4HpnOwDtzEfQyBQZiSzc3PUYFJAc2J1dVUEn60LBALlRVLlpkOlkshY6F6/R5VqQs3ppkUHAsUHrOTtStGQTDWbYAduSugXqTCTU7wrEQiUG0nDPksHq2FlZYXuu+8+evChBy06EAiUEWhHyCzRVbYa9u7dSxdffDHNz89bdCAQKCOSleVlWltbk1GPl1x6CV133XVMDkcsOhAIlBHJiRMnZPzCsILXrSu01mrRyuqKRQcCgTJCPlEHwWPKdreDLloZ5BQIBMoL5gCQwFCGQVd4WZifp/m56GMIBMqMyl/d8srh9MwUtTstajYbVE0q9OADD9Llx/+9JTk7mLqsSdNXTVPzKQ1qXDRFtf2875maWCyBwFZw1+u+bL4zw59e2jDfmePhf/X/iFuUz+BXbvt1JoapKRr0u0QY4DQc0COPHKUrFt9qSXYOSSOhhW/ZQwvPmacKc8Dipx+g1t2P0+Jf3k/t+09S+4FTljIQ2Byed/T1QQxbwGaJIanUExpU+nyjHtKQySHp9ah6Fj44s/fb9tCVb7iKmpcO6e7/4wP01zfcQl+7+f304Fv+ghY/dV+QQiBwHkH6GPA0AmMZIDsNNBku/bFLaM9zF+grP/g++tJNvyVEEAjsFHyW89MtpwNug9uVokGJgRe8dj3o7ywxzH/jPF3+uivpxB9+mf762e8IQgicM+RJAssI0K+1XSkYZD4GyHA4YNm5lyTQl7D/Rfvojpe8hx74hU9YaCCw88grfLpwXR4RXvLQkHgpaCPIDE6VRBnPSQKnbTuApXDRD1xCX/uxD4SVEDjrYFt3vVRMZI1verwM7OaXJ4Qgh8lI+gN0POrkLGhWJEwSOHlnCvQpXPyKS+mO7/+dIIXArqA77KTSG3ZHBMTAPvb3xI/FrQjHdup7UZH0e04MCVVtBqftsOjBF++nh97xmSCFwK6hNWynsjZsiWRhLeqANJQemBbYfsATOCznOSF87u0NeuUHHrW13UVqMeDtSszLIE2JMzxheCTZX1yNPoXArmJ1sLJOVoYs4l+jNRaQBAiixwTRZ+shJQdetMqfPyQBQrjkkgZ9z1ss4BwgwafpMBx6ba1Faj2gObH1dyUweGn/iw4FKQR2HUvD5TFZoaXBspIDreoyWFVyGIAc2HIYat/D+YjnvK5DDz98P73zeyzgHCBlAFgK0oxg5hycAXviKcTqHceiCRHYdZwaLKayOFhiWWRiUP8SyzKTxOoQxMDNCjQpYDGgrwEL6jpMBtR9ZGb+LUvBIOMYZJboek36GIQY+lufDBbDnB94U1gLgd0HlN9FSQHuMi2z9aCkgKZEi9ppcyJ7UoHRSed7X8O5QAIyqNfrTA51qtYwbTwTwxZnicaTiKnLZsNaCJwTrLA14AISgLsmfrhrImhGgBjQjOgN0JRQasAjTKCAN/1tQYhBn0iwyPcktv64Em9JHnv/nbYWCOwu2mINqLTMOsieSqiV4JaC2gpCCTqUWZoCcLcpBYM0JQBtayEAfQ0StGng1elTf/o1WwsEdhedYTeV7rDHgoeTvAz0ESXCZBzDkImBXX0WAds4mhAbQYgBL09hFiecJ7EgWLYCzKcQb0fuMm55lbxy/LyjP0HX32xhwEbhwM0vpxslLid3vZxGZ/i8iW5I48fzyMe9iq6y0Gyf6+XG9z/XEp09qA0wushThwr7MNrRwsTlGyCmMTyfoY8rL6fXfJDoI6++XB5d7vZ4hgTDoZ0YYDWAGPARmq0Ak6xgPoXA+Ysj7/8Jet4br6QaHaOjh99Et0LecC/19lxJV0wiEUGTZl6UKfaR9z+dps0/GS1afIPlbXLbSz5jcWcPUH4XfwwJa0DCbA3Av4zTEb8u5yP0ceWo/Mb3XWyxuwNmgCrhpcpuDyeVTxSTQmWL367EzEthMZzHYEvh0hfo18XW3vtuukd8jHe9hx76ZIs9TVr4P8ctB0XtBTeYZfBc2ves8/QLZdJPYMKY1EeWEQHLhPjAKJJeH48rp6lWbzIx4IUUnL4tdjJstVMisLu4bo4tBeAYLb1WPCkeeWBZPXsupn1jVkPvrmPcQj9I87fwys1X08yeY7QoRHKeAYruss4icDewFSTceOCTqTLkk3pGpzAY+ByC7/ZvzLXrX3bQwjMcuWzOfBPw5WVW/g3w2O10/C6i6Rtvoqtewc2Qux6iExY1GWNlYbkBpBK44JB1JsASO8PnLv3VHk1dtsfWAruLsXb9e49ZeIbUKpiE1JqYjHtu4/yuvYEOX8vNkNs+bKEbYX0fw+1jFkrgwoDNxCC8oOSQa6ttFr3jHZq6fK+tBc47pFaBNQtySK2JU4/SiXepdwSvfYjWxLO+GRIoLuTbldpTC3tha4TgaD96HrY7AxnSTkZuFrxs9DHjFdIpyXf6//AeekRDx/Bhul3u/rlOy8JB6//2pFjQpgQflz/GEYNBfJtH+6EuHf5n32hrgfMRj7zkbfp4kq2Gw/n+iFP30n2H30Z3TLIWtoz1fQy7MY4hsPOo3P7b/3o412zQ8qnj1Ej6NF1P6J6776ennHyzJXlyyKxNLztEf33DOywkENgdgHxe/8qftDUG7mzDIQbo8F0voUalTlOVJs1WZmg+mac9yQLNV+ZoJpmlZmWK6pUG/eXls3Jj1IcaW70tKh583X8VtzDflTBXzufWbQVF+4EWDbtEC8+/wkICgcCFDOl8xMhHTNCiTQoO3OLIR+DUX52iw694jq0FAoELGWxxJdTutIUMpPuRCaLR2Ponu5Y+u0xzz540di4QCFxoSDApS6/bo06nQ91uV+ZiOJMvUg06A1q87RRd866XWEggELhQkczOzdH09DQ1m01qTjdpdnb2jCwG4NSnV6h+ZG8MdgoELnAkeJPSZ4fWcQxoTpxZJyRw8pPLdP0H/7mtBQIXArTeb0+KhaTb68kr15BOB7NFr0mT4kzRfrhDT3zoEbrmP/1TCwkEzm9MUvOtStEgU7tNNaZoamqKqtWa9C/gWxPbwfKXu9R9okKX/9x3WUggcB5jkqZvVQqG5NFHH6Vjx47RE088QY899hjdd/999Pjjj1v01qHNEaLFv+nQgGbpsjf+Q1kPBAIXDpJuhxXYnkKgObG6uirNie0CBLH8lR6tHa3SZW+6iQMKSKuBQEGRzO/dS/N799DswgJNz83S1PQM1ad2bqae9nGix/+2Rxf9239IR17/QgsNBALnM5Jqvcb/iUzr1mXLoYtvWVZP94b+5iFPOmTMeoWOfaVFD961Qnt/5jto9p89i4ZhQAQC5y0SnfxKRXtRMIvT9rTW+xkATMhbYWqoVphsqnW6/6sn6K5Oi0790LXU/RfPoMH3XUn0bUcouXKBhlsfiR0IBM4CKp//nZ8c1qtE3dYqLR5/nNaWTtLiyVV69vDXLMmZwefZk5l7ecEM/+1BS74OtDxcocZTpmjvtfvo0FP2074j+2h2/zzVZ6e2NYYiUE5s9+3KT18xJ/VuO29XPvAv/4u4RXm7UoihxndqEMPSCRDDCSOGX7ckZwYnBszY269gBuoedes92v8tTAY3HmLjIaGTn76Penfz/v7yfpl+PmaaDmwVO/HadRDDeiQ4GXw6ZAVKjHUN2x7S5gQ7ybBCh7/9EN3ws8+m/ZdN032v/RB94YZfoXtv/gN68C1/Id+8DFIIBM4fJLixOyGcDUwzEVz+6sto73P30ld+8H10x03/NT5+G9hZ4C7vYhUZNyYsZ6laFx7S+ehwa2GnSGLhm/bQ5a97Kp34yB30+We/IwghcHYwVnHzzQEnCAdSrH8ihoDtSrEgFkN2pnbuIBeeu0D7/8FeuuMl76EH3vQnFhoI7DykP8GkWqlK3wLqtVAC123/VCUem3t4Hl7rtyNFQ9Jo4ElAQo16g4aDIfV7fUq2+Im6ccx/0wJd9NJL6Ws/9oGwEgJnHUIAY0uV6zAIAtaDjqXRe6AwgxEFIJ3kkzR9q1Iw6DgGNsFAELVandcqzLxnfqQyMewPXkJ3fP/vBCkEdgU1thJGpUZYYD2oBQGqsH9elxYH/2EdGA63PjFR0ZGsrq4RpN3uUJ8thi5mc9rGa9cHX7yfHrrl1iCFwK6hRvUx4SUlCCUHJwhA+yAqhE/ie79EYBTJoD+klZVVeuKJ43Ti+AlaWloWkjgT7Pl7C9RfXI0+hcCuYpQSmBBy/+nCZABrQSiB/5JE7QU0M0AUA74pBjIkmMoN8zHAalheXpY3LM+kKZE0EjrwXYfpgV/4hIUEArsDtwhUmBASUELCov6sMxLQ//RT+WhSnEF9LzqSer1O+w8coIWFPTQ3N8/uAtXPYM7Hhect0Oodj0cTInDOoUoPZffxt4CNbBSfrediA6NI7r33PpmPYX5+nvbt20cL8wu0d8/WP1C7cONCNCEC5wR4Fyddhj0WX9PZyAZuLlRABUYHbCVIY4J/ajw4ZZypFAvJF2//Ij3wwIPUWmtRvd4QwXRvWwGeRExdNhvWQuCcoIv3cEyYFlj8H65TBC/29EGIwCYnEuuCpep9DmcoRUNy7PHH6NjRx2h1ZZlPTkKNqSnCR2i2gumrZ+jY//iyrQUCu4seCMGkO8R7vEYSJiCG3qBn1gIvTBDgBulbEMHKNqVgSA7OT9OBhTman5kmTPPW7Q1kOvmtYOqSGp36s7ttLRDYXYAIfBESACGYi5f+B9y0ACGADmAhSF8jC8IAPJkIjCKZqvLJ6bUJ48KGbF51Ol0mh55Fbw5TFzfj7cgt47l0/V2jn4wXuevlNPqhv5vohvE0R19FV1nsOtz8crrxdOlueZXF/QRdf7OFbYAj7/8JS8vyqZssNMOG8WkZnnwfOwEofCa6qFVgZGDhgJBB7imED3IKjCKBOYUJYPv9vpwwGeDUblv05lDb35D5FAKbhCjOd9LCHubkT36cbj38JpH7Ptki2nMlHb7F0okS30DT1KLFN2iaWw/fTmt0kA6z4t3g6XI48qKLKZuY7yDtf/9zzb9VPJf2PSs39+e1Tz+9kl97w8Ty7AaEBEzQj6BUMLqAAuDGo8nNIcHn6frSEYMOmKqcuPQZ7yZRnamFxbAVXDdnynuMjr/kM+IDHnnJ2+jW9x6zNbYUXnZQfL1PforueJd4GR+m2y3N9MvGLYKb6PALRifyrT3r6jELZJO45QYhrgxNmnnRBiRz6hit8eWf/u5xa2eXYE0Dv/lPrr+5sC3W7zIiwSNKfLcSX7tG30KjUadqbYuTwQYLbw1fXuY2MKB3/hEz/LXvpttfy+7NewhvrhBbC6sfzchDkNt+Pn+XvuVSti4AtjDee6+m2XMx7TsDc/6qG5WU6NS9dBSWDGNjklmmox9hsspbO7sJ6LmL1cXMUtD/wNaQHDp4iObndGornEF8jWqrjyuDgbeId72HHjJlE7AZnrbVvY8htSom4F2naNLbLJkyP0onXns3rYoR16SFV6zvHzg9bqL5a9XX+5u76Z6PPmokcxrFZ0I7etckK+ZCgJsb25FiofL5X3v1cHVtjWr1BrVaLZY1ardW6Rmrb7YkT46rfv4a+uK3vTuaE2cK9Dm88cqUCNDvcNtHr7Yw9C+8LdeUYOTSr733TWZhrA9D5+AV0rQ4RkcPv5vuYZ/0W0gTZUK+hvXboaNU+0Tortvp1ud/eDQdWxX3XfseesTKQHex9XDtwcll32GATLc75+Nnr9ojN0bc3860D+LeH/9N8xUDyVRzSkwtfNAWxLC4uEhLy8sau0n0jndo6vKtj5YsK468/1WjHXlsQdx2+OO0aLxau4gVN7UKJrTtc30USyAFRr7Tcfplan2ocgNjTY7TIt/paE0d6ygVXHvpxhYBH8dxthpqQgqBCxkJ+hb68qXrLktH3q5cWVmx6M2h/WjOLA5sAnO08MbX0435JwY3X00zpnxrt+GOnHUy1l7w/IxIcFe2Tsm195oVkFdm3NHtKcetObLZdMdgvhxseaR5vcH6LJ7kScc9z8dTk8CFjsod//l1Q7x23e31mRSW6OjRo9yUWKFvm9PpsDeDvd+2lyqDk/S1H/s9CwmcHjnTfAQ5kz8FxjHgkWUeY+nS5kGuaWHImgVm1l+XpR0HmjDHL/pOOiz9C+NlyZXZmg403pTQhOv3WaKmxEv/5KXinq/43Rf+rrhPVk4lhtU16na7Yi3gS9ed9iq9YOY/W5Inh8za9LJD9Nc3vMNCAoHdQRDD1rBZYpCJ8HAq0M8AVKsJ1bb4uLL9QIuG3CBeeP4VFhIIBC5kJPKUF2wpM9gw0yZVqtX1CfpWsHjbKTr8im+ytUAgcCEj0ddO4VWbAWMYalsdx8BY/MwyzT37ElsLBC4kwGberhQL+ok6Pi4fRgpiSM6AGAadAVsNi3TNu77fQgKBCwPoVtiuFA0JelxwXGI4sKCPAY8wzwSnPr1M9Yv30dRl67rbA4HABQTtYxCoK7Pmiu/McOovV+j6D/5zWwsEAhci2DQYMBsM2VKocBOCA4QqnCy2jtZDbTr2wUfomv/0Ty0kEAhcaGBiUFKYmW3S1FRNyGE47Fv0mWHlzi51jyd0+c99l4UEAuczYCOPy2aBm+iZ30jPVwgxuKADEku9fuYj3X1GnMUvtmkwnKHL/90/lPVA4MLCJHLIdGW9FAvyuFKXHHagmxUEsfzVPq0crdFlv/DdFhoInK9wS8EF2EgPxklhRHsKgezxgxEE3I1Ox5mg88SQHv/bHl30s/+Ijrz+hRYaCJw/wDBokXSRUPkXF158S3/cLTIxiMXAImAHPkzWshPQE57IuPVjX2nRg19boX1veCHN/rNnWYpA4HyAaDoqbCoS4qtZCoORgZHDmL1dCKjFwMel5CCebR+ocy6gBJvINwUpqdN9XzlJd7VbdOqHrqXuv3gG9b//SqJvP0KVqxeov/VxVYHAtqFWQrYgRBhB/HnAmjY9cRFy0Bmoi4TK53/9VSkVnDq1SKtrqzTsD+jpy2/RFGcIJxfM2ou5/vEZkPagRavDVVoertDyYIVmr5qnw9ccoMOXHKJ9R/bT7P55qs80+JqMX5BAYGNs9+3Kz11zkDeTsX5S97Tubizj8Vjufc3/w/4CvXYNYhiAGvh8Lhox4PNdT1vaGWKAJdKvMDkMmRiGHaIDRIf+7n666O9eQsNun46+74tU7Qxp8S/vlynoY3q4wFawE69df+6aQzliUHVXKyBTfhUN07o9Kl9/ze+wW6DXrv2pBM4KTgo+gb/lyWAnQE0y8fBOKtSYb9AV33sZ3fiG51Jy9xN0z498gG6/4VfpkV/4c3rwLX8h370MUgicG+SVHMi7JhM7HYsLJQZ55ZqPmUlBppE/w3clJgEEsfe5e+maf/M06tzxIH3+Oe+kh974ifgAbmDngDuaC277CLJlc+rrij4ueeTCQBACXhey0LUiYSID2LndNnBhDv3jA7T/7++jr/zg++iBN/5xWAWBnQcqrAsj30flBOFACjSbJ2NyM0GthDGkhDAhrgDYgBh25mAv/meHqTY3oL++4ZawEAJnDdKfYFKtVKVvQfQZC7OA67W8HmjheSgdKCVMVnSEZbJZO+RCxgbEsP3HLyCFmafP05du+i0LCQTODoQAxhZ8bhEEkY6l4UXVmf9zer3eQgBy65OsBQbIQYwG/qtskOZCxlmxGA794/2cSYf+6uq3WkggcPZQYythVGqEBdaDWhCgCvvndane/Id1AI/UUyI4rRiEEUwKionEgMeXZ4qFb16gmWfMhaUQ2DXUqD4mvKQEoeTgBAFoH0RF67myxJgYxhUflsGIdWD+AhLEjloM1fkaHfzHF9HXXv0BCwkEzj5GKYEJIfefLkwGsBaEEvgvSdRe0CH7GLozZjUIAbgwRpRfw7QZMRZVEAgx+IGlB2jnYqvY/8IFOvHRr0VHY2BX4RaBChNCAkpIWNSfdUYC+p/e/NjNP8VQIC6nBEwSo30KEI9PMy4UkkYCPmU27fOBM2nWcUIxW8sWUT/YoL0vvIge+PmPW0ggcG6gSg9t9ScNAKu26bDqMVTdYr2JkIoGq9IrIQgQl8vRSSGNLxCSGnpvcXyDISUsIAkw71axcOMcHfu9O2OcQmDXgXdx0mXYY/G1AfUH+FcFhmLrAj+aEqrV+hQOoZMEYFdIwWHrTgojccWADhAfwzrLahOYv3FPWAuBc4Iuk4EL0wKL/8N1iuDFHsNLlZc+BfiH0gmJPocMSOB6McFvSYtKCgCMhVFMIIonw/RVM1Q/0AxrIXBO0AMhmHSHeI/XSMIExNAb9FilbWGCQC2XvoX0LoiQvDBE6c3v4diE3VFScLc4kFEfYM1ULGIraF7VpGP//Q5bCwR2FyACX4QEQAjm4qX/ATctULNBB6jjwgUsXtvVWIDfBcj51xEEI0cKZ2Jhn++o3PHrNw87nY6YUysrK9TrgW2HdOXJX7AkT46Lf/AiOvpf/5Ie/90vWkhgU0g/X5//XHz+s/cePulT+Ib0E/RZGnzO/raXfEbjU2wUf/rtrvrU6+2z+JPiN/qcPzDpk/47D7x2/VM/8lO2Jvou0LGOCdUrdXm9eroyTQv2yvVCdYFmKjPpa9e3XTsj1gNXe3bxoM6IwAgjfQLBLqwF30nef9ePbO515nONLbx2baeBPZlo5GbRuGgqmhE7hKs+5QQAxXKyyADlvPXwmzIRUjhbuInmjRSA2gtuoKvMvw533Z6W6ehdCDhIh+96OR2RyLMLaRqYoB8BlsD4omoMJV9/e8+nMm0whTe/IO8HPA07qfVQHOgD3jFMOnmnQ20fE8P9J20tcKY48v6fsLszLIWzf7d9Mhx5/9PHrJSDNH+LeU+De247pp49c2PbnyWgurowcHNbj1zYhne+jB40/QS/NStcRYQUtqYuFwR05ONWTYQxVGeqYTFsFy96FV3xgiZ78s2Kc4nn0r5noTwMtgbUCiCavvEm9WwIbl58N5pHjFPLtKa+swvXW4hpbGYDZKq+MfIZ5IVhRKDKb2EChOXXi4UEQ0E73a70LQBd9qPPYUvYooURGEeTFl7gyvQonTgNKdRe8J3Srk7lU0+mqGeIm6+mGes7WLvtw5kVcO3T6fqb1TuCa2+wMnmfAxPcfzibzZydhCn/hgK4lWB9DuyXVXE9TXEgjyu9bwGWw5CJQseNbwHbtDgCrHzv/TgtwujacyVdcRplX9fH8PwPW8zO4qpXXEnyEYFT99LR17L72ofs7t+kmRc9V3wjyFkVQO+TnzoPrJ7NQrTAhOGWALuq/F6/2ZUAg4SPhRUE2pTYJvqrfZr/u0+xtcDW0aLulz9Dd3zE78o30I3vn6B828Ix6m66tZfrdARRiSWQPRWpPevqiZ2K9zzfyI0By+aGTfRHnH/IkUDO9Q5GfRIBwvBwcQqHicSw1YPtnWjTzDMP21rgjPHad6d33Z1XrM9Q66j6ahdZswW4eQ/VxdOi1Y/ao8hbLjUSQH9Hzjp5r3cqXkmHJ5aNye3a29N+hemX/cTkZsd5Byj5BiK6AD8jtRwYaTjS5MILgh2xGDqPtWnQ3t4XsgOKe56fV6zXryOHdX0MEx4JbpQmvaOn/QEsb9Qmw9p7vcMz33k41t+RNidO1wn5Ybr9DfeS9lg1aeGNFwI5mIKLkvu6u3kBxtdtk4Kh8sVf/ZHh6uqqrHTabYK/y/6nr21+9qV937GPqo1l+sor3mchgcDuAOS23e9K/NW1Nd6MGwes6xWbp8GtgLQJAZcjsg5IBMpP/Hf+8H9HRHEGOJk7Bjn6TaN1b5vmvukSWwsELjRA+aH4SgKZNWDuSFMh84uWbE1VLhjsSFNi7R62OJih99/0dAsJBC4c4I4vAr8E4E/DRsGkILygYyTSJ3kaWCisf7uSsf6EPDmW/uoE7X/xdbYWCFw4QDMiFb5Vqt8jXUPgZoQwMgSbZSdx7OM/Ts944TNS+fGPW6fvLiKpNmpUrVflDTQcZKNRp3pd+6m3gsW/XqU93/ZUWnj+FRYSCFwYkH4FFyOFVCTFGCGMkcOOEsMd76IX/DzRW993J935JyzveyvRz7+A3rXLLy8nS8vL1La3K/v9HnU7bRnktFV0j3Vo+fYTdNE/f46FBAIXBkYshpzwn8bLvwPNBycEJYctDwg8LZ7CpPAr9OJDtnroefRdf5/oS4/srtWQYAg0DgznAC6k293ikGjDiT9foblvvIQufe23WkggcP7DOUDEwgAdzASfNiNU/B+uWg5ZyA7g+hdnpCB4kB78U6JnHsmNPdkFJHVuOlRrVT4peFyDKa6q1G63LXpr6C/16PifHqe5v3t5NCkCFyBE1cVVv4c5srhMAHd3GsfoQz/3UvrlH/5duvl6C9olJPjkPb5uzcaTBIAgev0zH6y09IVVJpgGXfKab6GpyybO4BEInGfIK7kiJYg0eDQ+w0bh2wVI4QX0f9Fb6ZM/9GwL2z0kvW6P+kwEsBZADWhKgCy2g2P/c5H6vRpd9jPfEeQQuMBghODe/Pok5NseO4Yv0LteyKTw1N+lO//ti2l3GxGKBNbBoK8dKd6caDQaFr11uOVx7I+WqNKYpsuZHJ7yr/6ehAUCFxbyzQgA604UFsPOeKpt4fEP0Y+/8KX0pZ/+JN15DiwFRzI11UgtBG5XiL9e2/rjynGAIB7/6DJ1W1Wa/cZLghwCFwDyCj7uH1N/WRkJ2REc++If0cfY/djPv2BkLMMzfu5D3LjYPSSwDmr1mphE6Guo1XTc+E7hiVvX6MTfLNHMNz2F/s6fvTIIInAeQhV/MjQ8jcVTCBa3HSQmjdw+Dn7nr+j4hXHZ5SZFsrS0JH0M3s8wGKh/JwCCway7y/cN6P4/eoxO3vEETbP18I2fe00QROA8BbTcNT2n8UYI4pV/hhCEeOS/SNB3JXBcLCAGHHtS3d4rFN7PgDz1pbSEeu0K3fNnR+nOj95NX//9v6X6dQfom77w40ISV7/jxfJ4ExKdlYFzByjCJGwUXlxU/uyXXjqsJRXqd7rU63apD6nW6KrFf29JzgzOpRhmjY+AdIZdag9btDJcFVnuL9H++QZd8rQjtPfwXpq/eC81D89RY/8sVecazE5npbs3UCBg8pideO36C8/UcTwDuYmh3qH2DiQfrcfaOa8EwX5xIQy+82GLe171h7JalNeumRj+t2GNT2Kv2xFy6OPxJYhhaWeIAS6+HNhjYugMO7Q6XKPVwSotDZdpebAs62ss7WFbvyUk72zol4PkIksmdhECgSfDGRDD540Y8MqDuKh7JScG+USdgF0/3G4PU7VsD2lzgoHhU7hI+Ip2HYtcrCkRXDhdaoQP8lclpQ24wsWAOEEEAmcDXvFHUO46lwgnpszIYD8GPe0UoOBYEiYFLPVKjRq8MCUIYzeZzaeYtUEWQg9Ix4L0YH15QuLk4BIInCWk/MAe96dh7Mv8hly6ImHUYhCCYGNpR98WU7jVUGMCgJXQTJpCChB8V1AIImGCYMKoMXmAINR2GLMexkkiJCQvqB8MvyG5b0vQLDLY+njwpJCiQC0GWxQ6AnIn4BdEL401J8RqADk0aDqZJqYEbu+xy+TAjQshDdADU4MQhGyTWhFqQUiueaIICXFBfZtQf70OwicEMgILBzSLVB+0byFbF7BXdmervt8iIZHh0AN9q7JWq7PLysgKuFMwNRYoMcBqqEmzAc2JmeqMkMJsMiNfIBaCkObFlKQBiWgjxC0IdfNkERLiInWCF9Q7CbM1AP+u6BlR5DG2ntd3+EX8JsoiP/iLhwSfo8Pn6TAQqVq1UY9ngQHlMnDeuExQculrYKtByIFJAbYD3NlkNrUgprm5gf4IpBMyYZJAFyX8ThQZYcQSS7YIQQzZx/Vaa525sDiH44QwCZtJU1xUPvRT3z1ssKVQx/sSbDm01tZordOlbxj+iiXZGeRNs2FlSP1hXx5Pdu0xZps6tDZYo9awxYI1Dhu0qYuF0+CRp0w/x9tibATAIeIKdQcCKYwKmBTQJEUnN240c8mcPLLkW4/cfNCvVeWbzOeuh5XsjyuxvVkFHCDjGbAmdQ71bPLjyq//6P+U1cKMY/jwz7x4OFXnVn2S0JCbFWurq9Tq9uiZg3dYkp2DnlB2mRyg1FiUHFh4EYJgUgAxwMW6EgPGN3RZeikxIAe7fClG1wJlhDcPxD4wYpD+LCaGGSMHpgXp3xJLlC3Oz13PTWgQA9dLWLVSj8RqdhJgNyUGr3UmvDtsUThi+OOf/ydCDBjkNOj3aXV5hS2GDj2j+3ZLsnPIK27ecsACpVfrQahASAG0AFdog+MlJawGzkesB3bB8JJXLu9AuaHkUGFrQJuaIAC3GoQguMkqg5t4QbP0tuvQp6aEIsQgpADJE4O6Wos9nqWoxPCJX/inw6lGQ05iv9OjleUlaUpc1/tlS7KzyCuwk4MOm9ah07AM3IIAUYhFMVB3hBjkXy+OXDS1AS0sUFa4xaDUoH0NsAqUHPwROZ5+wVrQvqrPPbPKdUg203pkxIBaBve0xABwHb63aMTw0Td+P1sMbErxaewxISwvLlG716W/U/k1S7LzyCuvnGY+6d60wKIEwUTAJGB0kIY5icgsvXxBspyA0bVAWaHkoM0J7Z72JoWMlElACnjapcRx2/XcjOaqo9YCtsRf/saTNSPy4Qp2eXf3/mjB3pX4mBBDg08Rvl3ZoeVTi9RiYnh2Nf8107ODvFrDjwWnXZsJTABCAnhvAv4sDAyN6e5lYb9mkOUVCOidXx+RY6klah+g6SA+dpOhPimbRAyoc5KB1LNJxAB4GBPDzQUjhj/9xR8wYqhQp9WixVOnaKXdomcnZ58YgOwkZ369FPzPJKCXIec6IbBf02ZAaCAArG9SOEWwBSGPMpFCieGz16kLpMSQsxJGiUFrX34dKCAx/G/DZqNBw36fiaFDqysr1Oq26ZmDX7UkZx/jCu3r0geBBeTPF0rXNB6XUdfWY6PwQPHhhODAOmoDbny+gB7EZ2RwOmLQupQnCXUloVirkAISwx//OzyVqNOg15OmRHttjbp8Up7Z39lxDJuBnvRRaMeiuYD5Ja1dzEBgQ3BdSUlAqhK78svqzl9xU8Kh1Yxr1wRi0Do4JtaULRoxJD6tW6/HLpNDn92z8RLVZiAXMHfBAFxQLDK8lcX96FKqDtnNixiKISEsaZ3AWlZvvD451D+m7KnCu/D/GCmkMZsaRXnhIUkSPmEJnzpzK/LxmXMLvXS6jCONwQUel1hi8WVC3chDQ8brF6t6rnmgbn5doWv5/+KRQ4L3I6q1mswOrcIMy+RwvsAv4PgSCGwF+bqDJQ/t6tY+LLQlUnsgl4y5RdeNZGQx0hlJWBAk0l7Hx2zZlR7/Adxz05TYCtKLE0ssm1hODyMCkayjESJ6b/Cc8laILPlEBUHS6XYIb1iKtNXdqenjA4ELAfLEyyVHCgolB1F+ZYX1IhHFQjaDk0FOiXS0BAJlgRNBXgB3FWofKA2YraCLkEOxkNQbNarXa9So1wn+Bvtr51EfQyBw9jFOCi7jmBTG2CD4QkbS6bSo021Tt9ehVmuVTpw8RmuryxYdCJQBeTI4nZQHyXCA/oQBm0NoS6HjkdcvgM7HQCBw9oARH/xL5FFlnZsTU40p8QcCgfIiQccJBjfJ5++ZGBpTDaqxGwgEygsZxwAIQTA5wFoASQQCgfJCiKHfH+j7EeljyuI9fgkEAptHMhj4S1Q96vV74scIyEAgUF4ksBb6TAhCDF0VhAUCgfJC5rTKXr0GKWBexbAYAoEyI1nYs4fwaTr0NXS7XfRCytOJQCBQXiR4AoHXrEEGzWaTppvTVKs3LDoQCJQRSbvdplarlb5V2R/04yWqQKDkSOo2OYsPcMI4BoxnCAQC5UWCR5ToW4Dl4NZDt9uz6EAgUEYkaDWgjwEDnPzpxLmaDDYQCJwfkIkX8FQCTQkMi9bOyGhKBAJlRuVDP/2iYY2JoNvuUJ+bFL1Oh6rT8/TM7i2WJBAoNm69rmW+M8c9P/oH5isGkmGlzpaCzhCN2Zum6glV7SMagUCgnEgGwyqtrLbkQzM06FOvvUrttZjBKRAoMyq/91PfOxx0VqmRDKk66FB7+RT1a1P0d6r/xZIEAsXGTjYlXvXw68U9X/HuS94k7pOVc3TWV2lB4C9euw4Eygx5iUpGOsIt2YSXgUBgMrgBoXBjQUdDB0EEAmWGWAzCA24xwA1eCARKDbEY0kYEeAFuIBAoNSZ8cmr0Q56BQKB8SOZnpml+do4wnVtSa9Dswn6mhhgSHSgP1GoelXXA3dIErw6MS9GQHNq3nw4dOEi9bl+I4eCRp8RELYFSYTgYZCJ9buhns+Y1AOWHI971pAApGpJqNaFGoy5zMAz4TOAFqvjgTKBMEBIYF42QeIeSgLkJJEmlaEhWVlao3e7Q7MwMzXCzYmV1hZYWFy06ECg+MPkxJCMFtRocYg8oI7Af5ABJ8Bm3VIqGZHl5mWZmZ+jqa66hq6++hg4dOkRTU02LDgSKD6i1q7a66xW9eKp/eiQJM9+Q2xCLbCXcd/999MCDD9Lq2qpFBwLFh/cTQPhPicL8jnzTwv35pWjgBhLJlG4AJmmZmZ2lubk5WQ8EyoA8MbhAL4QWUm4YJwVbcSkYkouPHKGp5pQIOlEwtRvaWYFAWTBKChLAfOCMYC6rhGhFSgpuK+hSNCQNzAzNgnEMaE6sLC9TP+Z8DJQI+oTBhJvWajHAn9FD5mEYOeD+6VI0JJgyHsecVBOq1qrUnJmh+fl5jQ0ESgD0s7nkrQeQQyrGDCkH5FmhgMyQNKamxGLA1G7dXo+OnzhOi0vxuDJQHmTWgj56VGJQKhgXQBoPTAZ5KRrkgzOwGjCFPL50feLECZFAoCxIrQUMVnJiwCLsALGEAlgI8lOCsKVoSPANCXzluppU6cCB/XTZZZfRvr37LDoQKD6cDMRaYMshsxog4AUjiDxgJSg7qBQMydLysnx9Cn0MBw8dossvv4L27gtiCJQH6dBmIQJzmSBABk4KeVpwHigwL1By6tQp6VvogwH56NudNq2trVl0IFB8+LDmEWsBS+o35NihiGSQR+KfpVtdXaFOpyvMiacTgUBZkBJA/qmEdUbyXybCDBCDNCdMCoYEox3Bf3iRCidj7549tGdhj8YGAiVARgxKAOKXJaOCSYK0qRQMSX/Qo8ZUgxqNGg3YclhZWqK11XhXIlAimHJDvUfIwQTrmSCRbpN6WYqGJJmq0rAyoHqd3W6bBu0WVYYx8jFQHmR6n5FDnhAkLBVfJKEGFhBJpY6DAxEMaNjvUTLoU7WoRxsITECq7EYIrvSu93mSyALVUY/6ioREPnnPB4YOSIxpCARKB1d48eu6OFgsLiUNEXRSakelPsWQLQsFJgY92AFbCkEMgVIDHCAL/EoIkFFSUDJIH2tCdItCQSarw8H5mG/2BgKlAqq8Vnur/KLsWTh0Ik8KKSHkhlAXDQlmb9IDyw64+MM3AoH1EPUGCbhr+iCL+13M0nYpGhLMvYADqzL7YaZotJ2K+LZYILARUNtdJt0TRfndTUUngxU/k0TRkPT7PTk4mY+BBf4ivi0WCGwIH71oN0T5dxVgfVAHJGAuE0FGCtoRWTQkg752OOK1a7xhiYP3ExQIlAGo7Xnxf8AtBSiGLEII1rcAK5tdSNGQDIYDebtyZWWVut2uHDRIIhAoDfIWg4iF5+AEsZEUDehCkdmhMYMTmhPoX4jHloHSA8qeE1F+90t0FlZIYnBSqNdrVKvWhBj6g75FBwLFBwyEESPB9FwIwARI140M3A9yKBqEGDC9W61Wt9etw2IIlA1KDRk5qNKncOUfkxFyKBgS9CdIJ4oJHyafowmNrECgqHCTgeu91Hx3cxACGBP1jJFIQZCgXwFwK0GJooiHGghMBur+hgKSyPnzgsGBQiIsRYN8uxIH3et1hTXRtMBgp0CgLBghgo1EiGCQyRCipFA8WmBigHWACVowUzQeXYIYMAIyECgLMPoXMokQxFowUkgtBVk3l4X/LKfiIBkOa8R0wCemQn0cIx5gFnAkVyCwEdI7P2ScCMbIQf0ZSbgUDUlvgMlfm1StTzFBsPXAhtGwkN0pgcBk+OjF/GNIBXTBiAOE4NKH9Edk53Ar3XJJgy7JySs/8KjF7R7YNIB1oCInAaGBQImQEoIJ/2mEskJqTah1kCMIkx39CPQj99Lf/Ks/p4cf7pj8OT3r1ZfTLZ+z+F1C2maQ8xGWQqCEGCcF0YKUG5wUrBkxYH+OEDAYcEcthiMvpd943fNsBbiSLv8eor95YHetBhkSnULOi56cQKAskDckISkpwDUdYKvBDIfUcnDrQfsc1H/W8Mif0oc/SPSsyy62gN0Bnw0jAzkVQQiB8kFrv+rBZMnFyQaZm/p3Gp/7Re1jeM4PEf3a/fTa51j4LkGGMvlB4wjTgw8ESoKs/qurXvezyCIJbd38cMy/43jOT1ofw/100x9evusdkLCfzIuDdP9ZONBA4DzFCAlAsIyHSbgkHvHDc3a15WJ6/j/6PvrI1++19d3BSOdjIFBmuLKvIwRIYu8Tid/X8ZjT3zHaGRz9wA+MWQe30ntf/QH67qdeaeu7Az5O/aZE2vnCEh+1DZQKXOdVlBxSMmARMsC0h+7ilQGWmrg10RWs7xQOP/clRK++PDeO4dvob37tfvqN79vlzkecCHz6nk+D9LbizGB+hkCgLBAyEFEyUJJgP26WIAQTTH2oxMCEMEYOOwY8rkzHMKjsNikA0seARy7+JSqcHHk+EwiUFKm14MKEgPeHQAbuVvnm6eSACY6KhmRmZoaazSY1Gg2ampqi6elpqjfqFh0IlAhGCG5BpOsgh5ybEYZaFJCiIZEDRmeKGAq6BAKlAio/9MBWBePrp8PZHOB0jpB0Ol2ZHbrb7VG71aZVzBbd6Vh0IFB8gADGSSHFptmhWEga3GyYmZ4hNCnQlADQ1xAIlBJGChkfPJnlUEwLO7nn61+n+x+4nx588EH6OvvvvPNOeuihhy06ECgBrCkxYik48E7EmPgcDPoylbpFQwIrYXZ2lubm56g5PS2PXs7qSyGBwHkG0EFeAGjACBEICQz06R1Lv9ejXs4tGpKZOSaEmVmqN6ep1mhQUqtTzZoUgUApMMlaACmIw66TggsIYYwcioYkYQsB07n1+QT0hgOWIVWSGPkYKA9SS8HJwUgBbtpswAQtTAJiLeSlqBYDH3MKn9ItpnYLlBWpOoAcoBzm+uSvKUmYFeH+omF0ZIacByaFHFkEAkUH7AMsIAEhAgkzsTBA/hEvQbaVJkJMoSAWg4tCDzgQKA1Q3aED5k0VwpRCwm1dQsyVaPjFUyyYxWBNCDlIeGQ1ECgFoOai6qj80AEJM7EwwNOkYebXLYoFmRo6CCFQZpiOZwouymDwJxbyw6sDLHg/Am7qL+C7EvlzAK+fpECgNLBKr45Xfu2CT4WV31+Y0jka7C1L9hfxk456ROhwFPhpCATKA7WYszui/Ds/mGWQf6PSyQATt6gU7/F+0mzOyMFOTTXlkUyv25PJJwKBsgBNiHTJEQSg1kLWbHByEIsBE7eIFNBi6PZ61O8PqFFvUKMxxQdfDZshEBgHK0WeJNLpCkASRSSG1ZU1WlpapuXlFWq12tRaa1Gr3bboQKAMEJVXYYUXr0OCs7jUehDJLIiigY8poU67Q088cYKOHz8hBIG5GQKBssDUPscHmc/9abx4lBicFGA1FA3J7OwczbBg3DcmbZEDLuCBBgKbQZ4SHGkYCAGLEYMIppAvIjHgJZCFhQWWPSzz4p9uNi06ECgBWMFTwaoEmeJLCMP9eTcnRUNy9z33SN/CdHNayGGOrYe5+QWLDgSKDyECFyh5XtFd+d0vTkYIsrBbNCRf+tId9NCDD9Lq2hrV6w2qNxqFfPwSCGwIKLYLViXIFd9gfiEBD/c0CCsYksXjj9OJJx6n1uoKuI/JYaqQAzYCgY0gCu9iip/Cld/88MDvhOBSNCRHDuyhSw7tp30Lc9Rtt6nT7clorkCgLPCRjz4pC2Zs8jCZvcn9sp7zm/Cf5VQcJJVBl1oryzTs4xHlkNrtLkuMYwiUBz7pihCCEYFMwOLKn4/3MBcfLVkwsHFQpdXVVZmeCiZRr9ejdnxXIlAiuJI7IShBcJgRgoZn4un5Dz/1FwwJZohmRpB2k7wtxlLENlMgsBFGLQYjACEEJQUNN8lbEjkpGpIDBw7Ix2bkw51JIt+wrMfXrgMlAtRaxJUcrqzrn4Rbk2EkDCsSUDwkBw4eoDlYDQx8PCOR71iGxRAoD1zJReeNAETh03C4iJPEWZikt/CCIcFIx3q9Ln0LnW5HBjtFH0OgVBCtV1HHlB+CRbTf411GtysakqnGlLSZOh0mhFaLFhcXaXlpyaIDgeIjTwRQctV5uAiTFV130Y1Sv6wXDIk0G/gAMSdDr9entbU1WmOCCARKA+iAiK3KH/61U/7JsJk0FxoS9Lzim5X4hiW+fF2v1+LtykBJwSpuWq60UF7kGACmEZ8MZsoghkCZ4CSgRMD/W2CELSS9oCDTx4MMQAoSkFTjcWUgcDpY34J4zS0aEj9EdKTgMKvVhGpBDIESQQY0QWwQEx7b+6AnF/3SdT/94rV/3NbdoiERQhAGVIKQ0Y9BDIESwUc1OjmsJwRb70NyX7xGnLlFgxCDP5kA/CMagUBZ4BaDk4NaDXkxMmB/Kk4OJkWD9DEA8kyW/ehjKOLkloHARnCLQXSAXSED9sPV9bwloSQhfpCCuUVD2sfgkLnyzR8IlAIyhiFX63Ne0Q7cMd3Vn5KIrOCGavEFQuWL737NEK9cYxj0yvIKuxgBuUbf0H67JQkEio1br9MBfa7sov/6lyq9uEwe4AxpeguX6HclcDO951V/IOmKAm4zDLj5QNRs1qnewFd1EFw8BgwEnhRiNeTMBUOqDSAKcZQ8ZN2kaKjc/u4f4+PCAQ/p1KlFWl1bpV6nS89YeaslCQSKjc9crzOWZUqfU/i8XwwFsxawwFoQi8E/iz8an9IFthWH8zEXYbDU8fkG78D0/JCR5yVNe1n3fbiM7kuAcPWlsD27J1sXZOn9GCHoX0lQQFkkrWaAnQYCZQHG7ahUx6Qmj+4hEl+Fn8Ph2qRGWIdb8/WcTAobESYUjDIWMjCkiquezD1DaM78b7tI11ksaASyOyGGbE3IASSR5hIIlAApMbDCj4oTBCuxEESOFGwdX4bPCMAJI0ccECOPcRJJSWFE3UQJR2H6OSpjkDwmhDPS7M0DZ2SXI9A8ZByDLhlwIgKBsmDEKhgXUXyIkQKUm8XXM1KAJGPuuN/XVTAbu0yMBDUVTXUtdI00majFufhJUjGx9TSLXJhKHrxuQZnFYAQBF89tA4GyACa9mPWsuOvFFDhVZEsLhR6TBP0AOVf8llbFt/W8fNuc7kMPITZuQoZh99EP0ZMxFJhzkiM9sTqpsuM/02MRJ4hcGtlZKh4uWwngSy0GCxEfChAIlA+qByN6ky4ZkEr1jjUHwgosiswKm3dF4E91zIQzkzy5GeFkAQsCrQqkAxl0e10bOtCitdVVWl1dEX+325H8PR/N04Fw3aeUwfxeznT/EKy7OJDO4lKLIRfNBdTgQKAMQN2X+p9Xgg0BZckUSIkgPzISYiMjoZRsfYtSQrANSMFEPqMPMWsERAFFxhOKHhMDZlVrtVvypBCfeGizH+HYJ7ZHfu66CBGkhAB/FpcSh8j6RSDH5n0MVnAUTNgr+hgCpYIrzhigdKmIBkoyUR3TGxEjgYwMMje9Y+uGGTg7bWqY1cDNFoQhLYhFiQFzsK7RmhDDipAEwgdDWPScmRQJrkq6yD51v1wITmMWhsVzRLquyOIkhOMzYmDg2MW88ZMQCJQAoj8QW1FtGAU0QrQCOuIBeejG2fbm+r9A2vO6qeqaeqBzrnJODDq2oSdEgOYDRPsZWOGRH7ZPXdkyExyMWQdY1zKo37dRMmE3Bwk2z8Q2g+QbCJQEfnPUOzxXfvihQKYHrix+08SAJu1ARDMgJxwmcZLG0qYiWTEyhdQbMvZtVkXuTu9xsq1ZFdJRKeVQkTJJIfWpA/wirvQQixfxbUS0fJwti5UV+Zt/A2JARoFAOSCEYKSQKqWogOmBKVKmpC5GEGOi5OCKDNFsgLwf8P2JJZDbPxYA6ZGX7zPNE3GSwD2c3v0s6X48TmAEYvEqlh/Kjf2YfyIxoH0UCJQFIwqZU0xXJ2iXKhSUyBTISGBUnCygXEi7XpCXArnbftbtn/WPXQDbSL54dCqKi/2nWi1pRmH7EteCUug2kqflk5eUFOC3LUaAwgUCZcGICW+LKKbogesClEp+qki5xUJNLL1sDiVXayAT7z/QCV9GLJX8IvtmmLL6+Afdt+5pPTiOI5BGPPlUFqQkMEoK/JemUXcjYogBToESAbVdRbRZRBeLkD/x2KrGSRr4RUzxofD2UpQ+dkQHYo+6XXQi4kmDud0O9br6ApVYCMjR920CQFflDm6k4Mor8SKyImGIcmWXuz+S4882SuPMopEEgO3P84QbFkMgYAohSiELwvRP1vQn8Rqmft0ELkhBLQOd9s3IQd6cVGIYJYeOCJ44KDFIjgLNT/PEvlSRzVqAQvOipYD4ouuq/6r8WV8EXAmVRUjGLQZeZFs9EPw0P/aANziahQPdDQTKBFUuXfATJRG/KoP4xc3+1GEXIoOYtFmQby7gtWolhIwUVDrUZWLoCnHoYCjPVRbLV2BKLuTACi1KylBlhkfXFZwWJIBtTDy9KrfmJfkJOWiU7y/dL0vSwIshyJBZLukPqc4b4OWQQKA0MGWAkrFq6GJK4orifp0sFn4mAFvXkY9qMaTNCRv9COsh61fIBKSBuSLTffg+LQ+ZS5Il3weR5t3jPGCFyDsUmt94Wv7lRMOwAod3Zceoxy7x6XmQHx6/MhOxTywGFuYRloktjECgkEiVCUOF3Z8KKyNcVzwo55NJrmmh6SfklxcscH17UfZM6V28OYL+CTRFutZf0YPkiCLbL0TXIU42Go99ssv7Tc8BXFkDD1hEHm5iBAJlgCsEVCFVVpd11gH8mYKp4rlk4aliQvly4UISI0ThgmECSiZCBGwV5C0C76sQYmBSwBytQhBoloAUWMSSEAtlwn7NcknXIbn9K9xlYki95skSBQLlQKaco+JkIIqcKhSUVxV4vaKN+nUb5KF35o2E/1j9eOH0+rUrJQInBLjaX8EWAgSk0Gmr1SB9FrAYWDhNOrV9XnJNm7TMVj7Zv9KinAv369RuXjBJFAiUC6IgGwiUSJ40mD9VLr8zi0CpXX9yOmQdgC7+dEEmaoFf5mRAJ6A+JeA/3Y7zcUJyKwIiBAGrQd6f0OZDNmeklUsUXssii7mara07UUn4qM5zSbWsEsyJRNzvBQwESoBMwU0Bc5KF404LQlAl9DhVQnaxmA6pjisR6GxNNhsUS73Obr3OLkutrjNCVVmENPRpATLAIkoLBYZ4OYwc8qTgVoJaNlIS2TQrS+YHJMr1HcD+XGT36Ge0PERQAKRD4kCgJMiUfwIZmOLp2IR8vCpjvpngUFJwqTIhQJwclBDq9Yau46kghjuDGGA54HEib+9K6HqJ/WgTgyV9KsEuwrxMubIoObg2I0/kBkiOJgzbleyS/1yYHyzBCNJcAoHCIyOCvIAQlAhU8UAEGVHkmxIZMWBAkitYrtnAip+3GFTqYjkgTOZ/FItBmxQiWjTO0hQdzQqUBZ2Q1hGZWgxcLm36WBNEypLBy+RQ4lBgTxIl+9V0QmiIlIw8pWQ6mnEgUGS48qcEgDuxkIL7TaTXX0Xu1ql4Oz8TJRLOT+7iuTt5qmrwWJiusWiMQ8IkjeYjxIA8fT+8j8yS0fWR8srx6L7V1XUVLaNsgziE5eITbOzDM3lLfRTS1g9wBAJlgFoArlSmZO4Xl0UeH7ro3drb+uvE7upCGNhOxMlDwzxfJSJVRu2vyMgC+pium8JCnARQvqzc2X5UMNxaJ5BNtxs7Hi9HdkwWx5KOZMpzFZcjECgNUkUTZVNRZYOCj7l55Rdlh6txui0UTCUjhCzO85F1V25XXlgWTA6qgCCHHCmk5KBpnRRGy23lkkeY2L/v18lhLB3KYWXNkwIkJYZAoKyQO7bdTVV57K6cUxRRJicAU/jJgrgsfmQ75CN+Fbnbi2Kr0ko/AcgBt2nhB6EGIQW/66ekINtleUF8n+mAJwuX7dJmwtg2Ob8L0lS++Ks/MsQMtECHmxDwc6OCnr4W364MlAP/85KHxYUirnNFOSf4xQdY5x184mI968hTsacNkgYRkorzgcJynqa0rbU1WpPJX1syI7Q2LTyNzr4ksLy141I7NuWRp3Ri5l19IgJX9mtlHg6xd8lEy+Z+uOLnXxBDoOz48EX3iyv6Lq4rELtQyjQMCpr5J0L1SjzCAaKQ6tc4+cMvbR6kxMD6B0JotzCqsS37SWVkf5qfkoGLP9EAKeDJQiKE4YIwzcuy4MaCPh5VFxlK2SRvliCGQNnxBwe/Lq4qjStP3h0Nw3o+fhTj6wxRuhycGMzE945FdPynL0h1u6P7wV8uEyivP+LE4ChYJEjAwQKEyyAqDKiq1WVdj0Pz0+0xfkJFyIDJQrffkBgqTAxvkbBAoOj4vb1fE5dVRl3RxMmuK5aknhCvyNIoPOc8OMwIQfsQuL2PTkP0EbCLDkHL1X85+AQuIAK1ELCelW/IYQk1GjqQCi7WZei2xWO7asKWBKwNEAPIRYhBySU6HwOlR9pD7x1wrKzaCWeKa+JKJUotLvtGXA1P+w3gR17Y3p4i+NMO5K+PCbNOQ6QDWQCu+FBovFPhA6XyInFGCoDsG/uTfUC87F4mKx/WJSyzVsYFDQxYDshWFi9QIFAWZIqkok8LMiVxhYK48ivcZYjKmN6k0dl2eaLIlFGfADhhjJBCvgMxfddCOxpl1CS7/rl9EISTg5bPy21zSTIyjc7KnpWNxTo6vZxCDBUuhLNHXXYen6gLlAd6B3fJEYQoripLpkS2kcM0LlM8BafMFt5I7tggAygeXIg9ItWxCKqQWPTmnLMScu9a1M1VcavBLQfeL/Y1VuYMGSmI1+LzouVkYlhcXpKv6qLAODHSG8oZBwJlgY89GCcEEVFkKI0pmmqUyThycalXFU7vxJyH55vfh+13xGIAMZjFIFaDk0Hd/Vlc3mKQEkLBOS+4gtxEru6TdJZWjw3lY79shyHRfEIQiYwRgZOA2WECgbJAlUPrvigIuyN39lSJ2TUlln4IWx9RcogomSqYKGcq8svAugy9S78bAQtByMCtgEwkXSq2HYv2Q7iF4U0NEAg6Fo0wZPfYs3h03wBWeRG9R1m57HoemBiazSY16g3JAIFgIjxHDQTKAtR7F7lripJAQdhvyu7WhJCBE4Kt+wjEPEGkloGRg6qjKadBFRsKzWIWQEYO6ncCgH6LkjObZGGZSD6cB5oa9UZDdLrGeSBOj03LodByyCJxLHkyZDeR55/yw04Bthw4MhAoC1LlcAUBIYgimaKkYmSQEycIxEk/QZ4c0nxZn+CKQjJU5VShRamzZoETglsKKk4A2EazAHQd2ysxgAjwKncD4xcamARGBzaBBJTwcmUwePlEUG5zk04bb1b2JABZ4MBgigQCZUGmwJnkCcEtAnmHIpXxdU4rBJFtl1kLuoxAFJ0Fd3pIjhhSghghhXFRUlDRdNgGFkNDLIb6qMXA5YGbL4aucxyLNic0Hcpe+Ys3v4zJoi/flljD4CYQBWf29NbbbPNAoNj4zeFnzZdHpkGi1LKa06oxzLzjAfMVA8n09LR0WMBcAHPp45C6RQcCgTKictuv/O/DPoZidtrUY2sB5lCrP6RrVt5sSQKBYuM3h58x3yRYIwBm92ngFsNB+ifiXuhIVtdWraeV2yAcIC63jQKBQHkhs0S7SCcFu+glDQQCmwR67QuGBIaSGUuGob3CGQiUHXm92ACiKptId4FB365MrQW1GOQxRiBQamxWB4qpK4kQwcjBDeV98ECgPED9H5c8xtcNBTas2WLgg5Yf/tTf6/YsOhAIbAxWloJCOx8B5QSVaEoEAqMYtw4K3g0nH7VVycgAQzEDgQAw4SZZ0A7HPBJ5T6I/IMwGgzey4FaKToeBwJkAalECUgCSLmak7WFGWl6rcMtCXjUt/oEHAlsH9KIcupGkb4LhDTFMStnvMUnEyMdAYBTlulkmeFUz/41+vKYZfQyBALBZMigeaSTy7jYLJnbAJA9OEIFA4MlQ3KZF4pM9AHhMKfPfR1MiEMghr/xOBsUkBIc8lRDpduXTWJgIttuJkY+BkmPig7lik0EeajHI9FH22gSshkFf/IFAKVGSR5Kng/UxTKXzxOErNzqBZCBQEuC7C3kZIYW8vzxI5I3KwUDGMqBJAQsCH8IMBALlRdLt6td19RPcTA4sMY4hEGCU2HAeGeCUn/46EAiUt0mRjH9eG9/LjxmcAoFy9i04EszvKJ/FwtdvhBzYtScUgUA5ABIYl3KDmxLZF3XQlBA3mhKBQA7lI4qka4Ob8FQCHZHw4/NbgUAAKKf1IL0JPixaRkbLXyAQEJRUHRL9ln41/aZ+rYaPbAY5BMqEfN/CuGx0r1yfrkhI1lqr1G6tUafTotXVJXr82GO0snTKogOBADBKDsUjgnHg8/yYuEmeRtRqVbUYqmExBALj0KZ28UkBEGLA40mMYcB7ElNTU/G160BgIspBCgDbCni7MiMGvEwVxBAIAN5/oCK0UBJu0JeoWPBUAjM3YZo3DHQKBMqDUQLIJIOsjQTl041EFAJMDBjQhIFN9il8JolAIJBBNCJVi2ISwTgSjHTs9fo6i1NfJUY+BgKKjBTKQQiOyu/96+8YTtUbVONmRL/bpaXFU1RJanRD9TcsSSBQbPwmfdJ8o8hIATg9Kczc8oj5ioGkyoSA5kSfrQT/KtWwzC+iB0oHtJ4nyWYNhE0mu6BQ+cSbvn/YbXdo2O9Ta3WVOq0W1Zuz9MzBOy1JIFBs/MbwL8x3ZgCJzL5DLYZXPfx6cS90JBjIgCcStVqNms2mCL4vEQgEnhxFtBaAZI0thFW2FFrsyhuWLOiQDAQCp4eQQkGZIYGFgNGOGNjUnGJ/Y0pepgoEApMBLthKH8SFiKTNlkKrtUYrKyu0vLxMS0tLvN626EAgsA4pITg7FI8hkmqtJt+VwJBoH/0INxAIrEdGAcUjgzzkE3X+gRkfGi2vWwYCgREIFRSbD1IkGAotE8KypSDvSrAFAeshECgzfCxDXjYihQ2CL2gkQ6oRHkKAHOqYk6HCK4P4qG2gvBASEDgbTJIcxlaLgKQ/rFGr1ZEZogkjIDst6rVXLDoQKBcyHd+ctheQEwRsMejByQGm9pKsBQKlwEit30LV32r6Cwn27XsTATzxVCJQInj9T3Xg9JCkI+k3ueEFBJ2oJbfgFwiUC67leTkNJHqTaS9QjD6X5GMUcijowQYC20VZNAPvXPMPjJBZDGImBQKBEYhalEQ3pPMR8IMGOcTAx0AgA3RDbpauLJmnsEgqYi3oih57RSQQCBhEP1Q7bKXwSPbv2UP79+6jXrdPtXqT9h86gmCNDQRKjnLQwHok+/Ys0P59+6jf51NQrdGeA4ep0Zy26ECgvBBSKCkzyONKvERVreH9iAr1B30axizRgRIDXLCVPoUickeCORgwESyshn379spksJjVKRAoI0TJ0z+XJ8EmklxoSFprLZnn8eIjR+jQocM0Mzsrb1gGAmVBt9s16VG/x9Jn4Zulf4BJ9V7nRq1UEvmko7+NjHWftqBISCp8ULASVthyeOTRR+jo40ep0+lYdCBQfIAQIL1eVz6hIF9lky+z+RgfpgXovhBDRb4EDXJwUgBBFA18TAm1O205aMzmNMsWw+zcnEUHAsVH3mJwYsCEyLAYBrnOBqYDIQYhBCGFzGooGpKnXHYZTc/MsEwL+3X4BMGcCgTKArUUXPC5RlgL9i1Xa044mBdMnCRYitiUQPcr+hTa3Hx44vhxmQw2vl0ZKBPQn5CKWAtqOXjTIrUoeD2zKqzJAeLgJkfRkDSmpoQRG/UGzbDlsHfvXtq3f79FBwLFB/rYVPSr7xAlBicFdXsQIwshB7cqhsW7kSZTjYZ8VyKpVml5ZYW+ft+99PAjD1t0IFB8aLNB+xWUFDJiUDGLwUhCw5RAlBgKaDH45K8yyClJ5GDb7XgqESgP8PRBn0BYh6ORRG8dSSDcmxAs0kFpTy4KhkRYsNMRcjh0+DBdddVVdPDAAYsOBIqPajUR8acMqeQeR/qjSX9MmT2q1KcURUOyuLhILSYGHPyevXvpwMGD8oQiECgLMjKoTiSIlBTgVpQMfF3GNbC/aJAh0ehU6Vp7CRZEDHAKlAn6XRWWSVaDiFoKSgijFoNaEAUkBgzgQO/q2tqqtKPwCfx6o2HRgUDxoQrPAoVPyUAlXZcxC0oCQgiyziI5FJAY5OD5gGEp4EBnZ2dodmbGogOBcgEqniq9kAX8ThQarkCHpY99KN6AwMpn3vG/D+fnZrn50KIam1I07NNDDz5MT118qyUJBIqNf//476nHCcEkIwVYCWotpE0I9vNfajEsvPOo+IqCpNasEXMe1esJDbptYoagagFNo0DgySDWgsgkUnCRpIQnlBguXViL4a9/80eHDT5w6ndp0GpTjY/40cdP0FMW32JJAoFi481P/L644xaBE4KTA1ghf8vE+AUIxjIcePcJCXvpn7xU3AsdfLw4YOaFfl86IQOBsqFeb2TSqLMLwTrcmnTIYyBgrYrBgC54tIknGfqIs2hI/HGLv2YaCJQNDSaDVIQMVOQJHQSkkAoTAcTJQcY+YFrEYgG9jUIMcNMJKQKBEqHRaIiMWA5ODrW8gBRgOSgZ5K2GoiHBK6Pa0ZK1qYQhAoGSAPV+VKALqhO4UY7cLCeoRhHvpQn6FpQUMPpLmxVFfCkkENgI0r9m0rO5GORV646+UYmRwJ1OW9xuF36Ew89p7aWqokGIAZQIUoBZFMQQKBv0dWsIk4O9SamTsoAUnBgyUVLQuRl08tgiEsPA3yfXvgZIIW2jQGADZPMx6KvV8oo1Kz6U3y2EUXLwOCURvJ5dNCR4Bx0H22q1xCySZgXIIRAoCXQOhvxcDPmmhROGkkY+TgkFU7sVcAYnDNlAE0ImbEmqbD3oaK5AoCzwgUoqWDdBT6OHaUrxW0wOxbuRJngmC1LAIxq4ODmY+y4QKAvwhjFkhCCg+uJHijG/OeYrZNM7cWtBLAZ7Hjso4OSWgcBGGCEESEoE6ldXUorLq+LXQNjcxUMijymt0xGvmUrnox55IFAKyFenpM9A+xnQZ+BzOapworyLRdYhmrZoSDABLA4QnSkSYAM8AoGyQJ9EqIxM9mokAeUHKaSEYKSBeH/MWTTIuxI4QPS64mCLOsQzENgIMhbBRawHf0JhRCCsoKLrFidplEyKBm5FVOQpBAZryPBoGwEZCJQF+igSpNCjgT2SBDmItYBmAkgBHQpOECkpsIBEimgxDIZsHVTqfNhVwuEN8Ra2vC8RCJQErvD8A9CQThvTHA5ygIWgJOCEAPJwKeA4hv4ATYcpSmpTNODTIeRQyH7WQGAy0Pk+URApnMHkYCQAayJrcvTFchBSKRhgH7AzwpGBQKkgH5Zh0VG/6vd1YYa8tYCmhgg3O8x6kD6IgiFtM8g5ADm4GwiUBJmV4OTAglevWQ8qsBis6SDWgov1RYjFgH6IgoHPQY4M5OfrgUC5gGqfVv2crkNHRODPiTQhpCVRUIsBh6z8IIcbCJQL0GsR/hsR1QlYEBjvI9O4YZyPNDU0HInkyUXBIC9RaVtKmMGYMQgiUCZAsVnBhQ/gqiAMqgGdwGP8ke9aotlheoJxDUUDjk6BE5CuBALlgRKCetyv5IBY3DhhLeRIgQUDA6EukraIFoO5QQmBEgOKzUTg/pQU9MG9WNHojHRigAWBMIhuUTgkMIkwjRVMJTWZKjI7biBQGigv6J/88Kd+aD6rhVgNKkoS6QuHYAZJWCwkOAmYwUnHf+vLImDFQKAsgFqLavMf9EE5QRfAb5gieYIAMRTU1pb5GHCwcgr4GLEONgwEygPUfqMB+8s/gkSDQYkAfQtKEOKXcEtUMCTTzaZ9bANf4WnQ1NSUTNoSCJQFouCyyIqBPcYNYjuIGQGRAEnmZIFmeNHATQkGjpI9aErg+5V5tgwECg/RchPziJehfKDEINO/2SJgYkCz22c+KxKS/JhvTIndWlsTNxAoC9xe0EX0XflBYKQwgGvvRehP0qFZUUhiwLf40HxocpOiVq/p9/6ZLAKB0sCJYIQQFMIDsBSMFETMYtBOyYJaDHd++cv0ta99je6++276yp1fodtvv53uve8+iw4Eio+8vSCL9B0wQwhJKBnIHAzy1M5IgQWd9vjqNT6VXzRUbv1Prx1ON6pU6Xdp5dQTtLZ8go4+epy+qf5bliQQKDZ+6eH/bj5ATQb8i20gPKDkAAhhCHngCZ6SAjrr9/3nRYkvCpKpaW5CNBo0ZJMIk7RAqvWGRAYCZYDZCWYpQPkRqAQAUpDZm8RiYIKQ4c8QfWyJZkQRBwSyNZTQkE8CXgMRwTHHAKdAmeAcAHLAkiMIGArp4D9vSvAPybV/AVZD8Yih8vnf+clhvVqhbmuFFo8/Ti1uSpw6uUbPHvyaJQkEio1fevh/iGvcIH9CCnyXRGe8Wgt9IQxYCHj9Oqkm2mk/1ZSO++otD2JDetXDrxf3QoeaBtZ+AoZDnBFbCQTKADUL0JNgqqDuqBq4JZE9iRCpqRQNiZ8AOzfwsTt6SgKBIsMoIa3/+I0DhgTTgjyJEGKQ+RkgNaqxFA1mMcg/w09OIFAepDdF/hO/hso/oK0L/ofFwKQAYsBHmUAKajUUkBj8ROiJkbDcKQkEig8fo5B9Xcr8rBTadFDroF6rq9T13SL5EDSmK1DqKBTstUrFOEEEAmUAOhkh+Mq7P5KUx5L8k+ZDNdEvwmPMAou/cIgwxIk1UTDgxXI+ATh8HJxLIFAe5C0GvCilMmBeyCwG9CPUzGKoMTHUGzmLoYjEMDM9KwfenJ6WE9PtdOWAA4GywMlAximkwuuwnIUYEulHqIvVgKaENidAFIgr4q00abVa8kFPHOR0c5pPQF1PSCBQEoxYDDmBIkhTgpW/Zp2M0qQwwQSxmI+hiPqSrKys0alTi3TyxClaWlqm5aUVWltds+hAoPjIiGFU1GJgJYHFIE2JUcGTCTQjivh4P5lqTFG/N6Djx4/TE08cp5WVFRntFQiUBSOdj6mgKWEWA96iHCEF9C/U0/6FQhLD7Ows7dmzRxgR9Ihp3vBoJhAoC7I+Bmk9yNMINxfUWqgqIVSZEGA5YJ0FFgPSFJIYlpaXaXpmhhYW9ghBLCwsEMgiECgL/DsR3peADsYGW9JTUw25UcKPx5PodMQNVD42wwAhQEAqRUPy1a9+lZYWl4QJ5+bmaWZ6RiQQKAt0Ongb6sx6gEeSKSGIKEEIMdRys6rzn5ADOioLhuSuu75GDz38MK2urYq5VOcToSZSIFAOoJ9AxyvYY0mxGHTG9AbEiAGWhFgMnBZwawEdlUVD0l1dpPbKEg26HWlX4cBxggKBsgD1XUX7DuQGaU0HF+lwRL8CpxNiyFkLcIuG5PCeOTq4Z57mZ2eo2+lQp9OLD84ESgV9S1JFX44yPxOFfuoeogSg71IMqW8zq6czRxcMyXDQpVVYDD0mBA5od7rUarc1NhAoAfLEkL1ODdG+B30kaU0HPNYUcujbJC4gDMuoQGCCrNLa6iozIBMDnwS4+JZlIFAWiGUghKCPJtWvbt56FotByGGgFgNLYS2GhfkFOQkgBfS46sCN6GMIlAc1qfcgA51fQf0ghkSeQEiXwoi1oBaDugXtYzh46CDNzc3xidCT4I9lAoGywEcyZiMbVZQctI9BrQUlhX6/T70eNyXYxXohieHAgQMyoAkHh+9WAgVsMgUCGyIlA5lrwYlBrQbtY0AqtxiUENDkLjQxqLVQle9VdtptWl1dle9XBgJlQToBixMEC8YzeHNCLQZ92Qp9C24xSHOiqH0MaDbggNvtDrVabVpcXCQMkw4EygKfss2bE+hrwEhgsRis81E7GbP+BbUaOIytiCLa2NLLqIM24BuK5YDxDIFAWeBWQr4DUgc8+cxm9qKVdT6K1eCdj0IYkqRQSGAGYdinzkijJ0fNp0CgHHBi8OaDi49hwA1TXssWa8EEjyuZHAptMZixJMyHkxHvSgTKhNRiQBPCyEEthvHBTUoK3s/Q7+ujSsQXDfqamB08gMeWODmBQFmQtxKcEHT8gt4yASUAbU5oX0OeFLJ0RUHChyYeHCSsBoz2Qu9sIFAW+MhHtRD0KQQAlcgTQkYGqiuOHH8UBom0kdKDzdgzECgLUitBiEFfwVZtgF7gMWVGCCpKGoCnLxrEYpATYUcqE1EEMQRKhIwUxpsPECUD9C1kxIAISyQoIjHgIAXKhM6agUBZ4Hf9tN47IcBSyFsLYl0jAaeTn26D/oiigY/IiQEYyvvnQQuBcgE13p8+5EY4YiBT+mhSyUFSgwysT0JupCxFQ+WL737NEAff6XZpeXmZ2q0Wra2t0rM6v2xJAoFi4w8W7jIfAHZQH4gBH2PqdVnYlUeUIAqRvszdIMOpa3VKfvlu3aggYKobMOMNqdHA66ZsLbBf3ygLBEoGay5gNKNYCzJewYgAIxyNMbz5IJ/EZ1dneSoWKre/+2axkHDQ+CIVJoXtdbr0jJW3WpJAoNj4/fmviqv9CCAB7Wwc4GUpFne1KaEWBXx4eoeRwhgYNfgPmsdL/+Sl4l7okAFOIIXsoPGUQiMDgTJACEEElgILmg8m3nxAnOgGFrYUsgFR2tdQNHDDgSF/ctziTXtnA4ESIHtzEpaCWgdCDOmcCxDcPhnS8ZgRg0xwVERiABsoW2JVmQEHHAiUBf5YMn0a4cTgszRxWGox8D0zIwaQAsb9FJEYUig5gBdxggKBskD6FOTmaH0L0vFopIB1iwPQlEBnI+ZFHR1GXSzIACddMoA1A4GyQC1mFvQlgAjwJEIsBSUGCXcFYVKQpxHWhFApXtNbqS7PCgyYSIFAWeDEoJYDOiDR4agi/QvSB6E3T2lKWD+Dk0IR++QSPWhtP+EgYSJhFptAoCzwzkftgFTxTke1FmBBQ7SPAS0H6EpeigZ9XJmzGIT9inecgcCG0Bmfe0wEPSMB3CSh/BjE5NaBEoAYB6YflcqYqV0gTG4z5JkiECg4er2uCpMDiAHKjz4EnbQoeySpxIDuR0CbH25FFA0TiUEPOBAoB7pMChAMbELTGoqOx5FOCi6pxSCkoJaFSFmIAYM5AoGyoNdla4EFzQm3GKSvTYjBLAazGmQ6eScHIwWf1qVICIshUHoMaWDC9Z7rvio8dMBcKL8Lh0IUufQFQxBDoPRYp+xQdeiA6IELQ0jCxbdhfwH1JYghEMgxg9R8/LEOyLJOFdD5aH0NLJJU/osFbjUpO4AE8UaVvlUVCJQPxg1KCFhEF1QhNM6eSGR/DKQrntIkjVqdqjjg/oAqgyHVKlWqV+Mz+IHywGyATNeBHCkIEI14SWMEwQApyFyQBQP6WUeaTmI9yBkIBEqCVOFTB3bACC9kMUYK/AdDAYJHnEWDvHY9Dj8FgUAZoPaCLgKoBJQ+ZQaO4SgZ3IQkOQUprMUgh+TUh4OcQBSBQKHhyp5T+lQLUk+ODdKEqjOFtRhw7C6K/EkIBEoE6Lp7AFYFtRYgOauC43EP1fkhM80pCsRiECsBAsANXgiUGq4L6kAhlBDADnn1ADkM5A3MoiHtY8C/tJfYDV4IlBUpF6Qe1gfnhDHFEH1hKWZTYiKCGgLlRsYLqgvejFDLgcEJcE8VYihqU0Kmr8JRmh8SCJQGqPouRgl5KyHfjNBktsBiYFLQNy2LhQQk0MXbZb0eH/FQ3jLrdDoWHQgUH6bmsuSRJ4SRZgQn02YE30QhhexjCATKDjUDcrAmgxFCShAiRiFCDCZFbEqYGwiUFqLoouy6DvXH37jFgDUA6fKkUJrOxxGzKRAoOFTRxSfrSgRMCz6VmyiETsfipKBfrQIpKEEUDWExBAKq7eIAsBScEIQTJMRhlgJbCZkEMQQChQOruSzwCdxiyJODMYNwAIgBTyMgQhKlIYaMHwOBosOV2/VbyQCfnjNiEH1wndC08jQi3a40xBAIlAeZcruCV+RrU04O4ASlBSUPT582I4rHC0wMVZ35lg9TFp8qOxAoCzJFVw0XLmCdSL8jYeSg0HToeEybErwUDZXPv/OVw3arJXPqd9gd4PPflSo9dfEXLUkgUGz8ysmPiIuvV9frNarX6lRjF1PHy4dmYDmwCwsBH3zGx27l25bwmzv3H49JHkVBsrK6Sp1uxw66T90O5tfvW3QgUHxk1oLd+WEgSDNivCkBqIWg1oI/kSigxfDnb34p7CKq8glYXV6mXqdHbT7o67u/bEkCgWLjHcc/LC4shHqjTo16Q1ysgxykv4GbFRj63O/15VN2uHmqxaAin88HUbDuaKekkkZepBNTSAe+Su6DNjX56lWtBlcF4ZqX5oN9dTpteV0BgnLotir4II7mz/8Zi8m2gDZ9tIxaXg5HubAIt2k6T580m002n+piLiEMO2m32xIZCJQBph6yCFx5Xclc0ThaUsHVPw2U0DxszZIgrUg+leTp+zCRQN9Zmot5bL8gCychyZPBm8i2Xl5Z83zUxT/SIo80PziWEvuXNXMn9jI6awQCpUCqLApRK1Ey8VmowZXKFH1cVdJV9ojqIZ04cEfTQwd1X6aQsk+JkXiHbII/3thnjJK7vmSmloiWFwnNtSw0DB5zUapcOSSpJUpdlqS11pK3K8FAiMD3+xqNhiQIBEoBKASLL6aDqkCiSOpPxy2IWa5+RMKBwgGpaonHXU8DYBvzGrBP+bdtUheO5e1l0YB8HpxKN5c/cQCPH3G1HJKXenL5KjQb+fS/Gg1IIKzDSxBDoEzQ9j3a6VXRDOgC+hB66E/ooT+Bhf3Sr4CnEGlbPVOwVLegVKpYI487+ZdCVBEKCbHFM0A6pMe2UhZe9J0MtxA0b+lXkCcmqrMKy83z9vxRvDTMmiBSfhPrK9H0tv/Z2VnpbMEKduadLoFAWZB1+OlTCH1C1xNScHJY3+FoyiXKpAvAm9sYCP06tjzq9KcbpsC8iSphKhoGIJ12eFpnosTpPuEXpUW+RgzYV44XLK98vhooi4V7+UFwInxcTgxSSuzDJ2WRXkqBnphAoCzIPwlQYmClcWtBxKwFUSBXIr/zqkApAbl/u/JCuSdaDdl22NT+WGRr3pb/xy0G7JMX5IG85dP8IAbki4SWA/LKl0sEi/uF0JwcWNLj4vwRx1lI+dudtppFIAMO1QPGHgKBckCUWJQsa1ar4qDZAIECQXEQBsUyJYKiQNngiEoxoM9CAnnRqBRImtcxixfH/rAAugvsF3qJjVhpYVGgvEY6lpSRZarlsbJJGSdL/n0PLLJnzjOx7UUkil3sNBAoH6AI6ojPVlUzfDUNzMHCPJGJhMrfGKDIos9QQnaFPFjncgqeKa+SghKSxsm22MYW31D8lof4LX2WF4vEZrDkAt8eboKkvii0EzIQKA1Q9bPqb17TCA8XT7qSIh/tKVz8fxTQLageNJD/TfSlLdW7VIlBBiyplcJhimz7zFG/+tyPvLL8tDj483zGgM0sz1GLQTIo5kc6A4GN4CogOgDX/uF6+JMh2y4v/u8QlRVFViWEcBgEfQoSq4AuypgFIYSsKQH9lFS2fbqN+T3vDLqNCEqjP0GazMtgIfCnFkMGnSk6ECgPUP9dC0wXUpWwcE2SIa98aYIc0vRZuGxifykhoL8AnZQiiOMtnBCkCZEJCELy43SuyLqNbmibSzj+pQj8p4QCwdZZeTSZphawx8tlvS2jG8tU8oFAWSEKpK4ip06pZwKwnQjS6+LhAigeFlc+6URkf9r5qSqqzQd9lCiujzPgcM1Lt+c/y0/D9GeuhElh+KekgnI5fBtx4ENeOUnkQNKSA8jIvIFAaWFakerCqJasA0dqCvGIEopu6WoGUVolBTQf/AnDCDHwRm4l6OCjvrrIkxckUwXW/AB1EIGfBTJkCylLVhiNtzRIL3llIgO0PDYrPAfGU4lAiZHpAtRKHEMWo4qlyoVQT6e6B0XMx8gKp3blY788agQ5qNXgoySRVPoWhBjscSmTAlxpSmhWlg+LLfZDjHn4j9MKKVgnpi8O7M63AtI8UaYuXuHs92WAR3OqyW6dk2aJA4HyAJqkrii2++ERf4b1GuIq59vm8zDwRqLG0p+gZKBiFgMvsjcmAB+mnAnCJdbyQAkkw6wwtur/VgzrxNTtEYg8FMgJjubn+UrZ8AIVpN9DW0ZHfBXxs96BwGYgqmcalfolfNTNIInV6+lt29TNwxUPTQghCJdUq4UEvH8he1SZ6yOQpMjHViZCCqJlyG0v5RkvkrnwSDMCZUtZhF2dpgomy9iWgUCRgeqeF/6TRfQArobhZ38j/yks3rfFIjDHlVnGLKDpkFoMqoxIIdvBYkC/AhODP5mQpkCql5yJaLOTw2QgueaXF4sUZCtuKYigPLU65rezOe64OYGZYGIy2ECZAPVQscWUCIHiikd+k5ElEcVzkTAI0gDQZ1c8NB/yFgOHuZL7U4lM0BTAHR+RygmqxJL8NBg9Ht1ew9JS5fLQPFEuLl+dyQDiL5FoYZ90j4FAgZBTFAevigLhp44G5pw8sngW2SCvgBAFq16qgKnFIOuqc1BgkEBKCpaXwtyN1BNJzeObZaSAGC1RBmTEYvsXAUGBtDSBZoA3rXrytlX0MQRKClcoeMUVn0VkTh66rhGihFjgmlgCBpQQeqiEkPUtqFICktwsBt0WuY1hXYBCg32fLmmErKYrxi74d5+Tg1gz/jopOh27vR51ux3q9WLkY6DMcG1iwU8ECqrLCGRVwyTO05pokLqihKZ8brL7uqsndpZZDNiSNxTRNL6mf+PAPsWBb3TJbzS+rZRByyYdj3CFHXLvdmPnKFggUEa4zohOQyRkXJPG1xmWzJUwJQcNVFd0X4lALAaxGlwQ59u7xWBWA8OiDZKb5LsekoPtn9eQZoPEWhzetzhWDm9KYBo3CGZuwmzR6G/QHtJAoGQwBVJdNI3CT8TCITn4qigjljSt+zXOAQJQJdQbsYjF+baptWCbpQqbS4tIWZBGttNt8yKBuX0LxlYFXg4Wsxa4KYFC9AfUaXcIg52QKOZ8DJQRojP253rFPg8U130ZNG2azDacpJhQa1VAWOjqRyigSXk7IQSIvjCFbcS8h7IiPf8062wfWJDWw5VUPJwhu9D9uIP08GPVg6Rsth8Z+Sgfseiq6yMhA4GywPQLPlWl9A8R/BNRv4fZn0GVMF2glBDzs6MQRdS7cmYxWJylzYZDWzMC2zCJSFOfXQlYtw8O8XUhBbc4sn3rftKdZbAgLYsJyCHNNGUqzTgQKA+gPaZBqmqsA9ALXZO41J+DRbnoNr69CqD/BlE8KLoqITRTNse2vh10kQURnMosBp2PUjZBlOSvrgZoJun20j+hwa79Tgsca+GAlsMlbUqMfxoLgohAoGxwHVPYSs4R5P3roJGqkJnfASWHYqsr/xYDRXZRS0EVntOaolZhMTBBAMjb331IxfLQ9yLM2oBwuOxTd5whVy6HkoNaMkwQ5gGDyc7HMggESgNXMNUpEQsVn62fDhpveciaC0NUC39QwEzPdF/YJie2jeom38HlySE2yIZNu1WApHBlK98eVoPloTuynQEenAP2o2LvS8j8+TKHfjZ/PjojA4GyQJRqRFmwkhfFJN96cJxEb5CGFQ/KJ0qYKmtOoXOiac1isKntsS2i0g5GiOzT17V/IX2bkqH7Q3a+vwwSgkiD7oNJCIQgc+jjgxrmR8dHIFAeQIGgXDlvzp9K5jktRFU5WZpHCiUDVT7RVIanVUXOi2wh/RHax+DDCDQ+a3KISD4uak1k+9b96v7WA8FeJhHdJ3aaCZoTG2UQCBQZrseqT6ZssuR0bALS7UYS6kq66hD9NAVMFY1TpUptW9mGqqium6LCLJ4WiSwhNknF4i2Os/A/EwAJzWuQGCsX9sd/FaqyVDA17LDHG4TFECgzxjRG1sfDFFmoppGFvRCNxApcV0n+l5+6Akmi24nP1jUVlFRFyYTjEM9/mSC9bosVD8uAbXV3sj2WkXiD5Y+/pN1pUYel2+tQq71KJ04+Qa2VZUkXCJQL0JaNBI65I8jFp9AwLL4m2qY/FnjUB5HU9qe7SLdQMkCbHxaDazdylrSaTtNbmLlE9mSCkW5m2yqQkoEwF0DKpR2QYqLIB21rNarXa1SL+RgCpYIq1rj4gp+uq2sBaYjAgqGLLgJ3BVA2Fb/7CzixKrX7bXsk4HRqMRgxABKPP3NlS5V834OHVSrsSl5wPdzWDRlZweH9yR/vGOMZ8L6EzPtYjyHRgfIAbxND+v0uDQY9VS4oFMeJqqTKpAqXV7x03RbolikWu9pnB6XOKzbSo4PfvzSNqQ7wRNA7/ZG2Jl+z9o/s6lMIzl7WvUMSrmUpaQDVZ0snZdH9ycZWTs0IZUUaywsJEcNpUC4xDXAAajHU5T0JDHIKBMoCNKMhSg59GSAkMKXLYEoF9bI7cxrmmskQhWNlc0LA4CR/3AhgjIFPdSBDBLoYLuDEoIrqAw1lGyg0x2EPnLPmaeMaPE8tB/at+9c4D9fyonnh64CkzZEMoEOy+zrno4plaK9gBwJlAeYg8XlI+rAYREFhMUApXJFUmVhTTF/GRGJVh0SPIKZ0CZNCdexxI8YKjZODjx9CWplmEQrr6aHY7EKbJU+xJvxOr+WDV/bvpCB/iMkWyYNdTasPHoREjBiwL0zUlIhJgwLa5JMQP8hAoAxwYuiKxcAKKndXKKH87A9QxVIigJtrz0MMqpysvNZpqOTgd2XMd6Lmer4ZgUmSEAYgPSwGEAS0FznLgCZszVkg3i2GcUg8/6UWA4hNymfEIrkoUhJDXjnSAhcwMTApyMhHFA5trayAgUA54AqzGXHk/eNrBiiesIorcE6ReQPZxt0R5LdhpAq9PiWgMf6fT2PbgBwmCQPkIWXEz3aJdbEYdPSjkoMQQwyJDpQKUJLNCJD3A3k/MEoFGTjENx3fZATrt5TkI9vCSlFXRCwCrDssPA0cX7e9SEH5Dz9x1Q8kjXpD1mEloJ2DjhEZ/RgIBLYM0ytVstNA7uyZnm4MS+NqLSJhTg6OkZUnh3GASK6sbj0kMzMz3F7BdG4aKa9ex+PKQGBLyFSLkV9RPRtB3tw/nTpPjhsN1TX/P11u46VAwVS8r0GtBo1NkBU6HNChIXM+suDRSiBQFuQVQ8UiGK5qoid5xRvXQdMzVSzNgHMSdyJs+3yKDdOn+3KPWwv8xx74ZV1EIrJNJgDlxJ5E4JdjHt13gunc2u22TOsmX9ZlkV7WQKDMyOmJKh3/6Y9F/1UYadpsI/Hxnyi7/uxvEpAqF5nzpvvi/UsRzJUYrMPraVKf+tcDBOBeJQPZr/slUhMkzWZTZ4lmS2GqMUXoc8Az1ECgLHClUMVQZD7A1ZP/M210ZyytqBoylTXFaAoAebkCr48dBVL5vhS8pQTwnxGFpsmncn8+zGF7ZGf8uAW8SbKyskKrLIuLi3Ty1Ek6efIkra6uWYpAoFxYpyQO074RdfMVUTTdTv7zWbBfw3KB6XY5INolxXhCXsdPgo0QzJ+xg7smeWhB1MsOKMyJIRWOw2ZiMczMzpJaDmwxTMWQ6EDJIFqiCuNwpXPTHcoid2Ssm5tHmoVkowo2iWRkW/WIpOsTkd+eU6bp1S8ZpOEal3cFqSfLTYvFf1ZoJ4UMQ0parRZn7GO38QJJLtNAoASASqiu5JUDcE1g17Tv9LqhOUk2lpdSxChUcUdzQrps0ZxSIGkuuZOCFMn8Xj4LEKzfSwbfRyogB/ExeCOZPr5Wq4vglesp9DeExRAoIUwtxsAKoj8W/KdBE6F84Mo9lqNmksrp1XYUmhJkYD5x8Iew1IdAXcljfB35SwG5hCYeDCCfZEA16nR6ElZFokGX+t2WpggESg5VupxmcUC2ntc4KJj78Mf/8LjkoDnkts2nSyVPK5rWOIFdeDgHdjTMPPpTeGIgyygtIwJ1N0oMTg6yFf8lg2GV2nizC+9HDPs07LZZepIoECgDRu6aeeR0K9/XIMC6eQHdHMrGHuQnoY4N8s5loFuOpvNocV3R3dFAkfXlStcmAnuRPdkxjx67bi8DnHRV/8TldMNKG75AoDQQBRElUUVJdcM9oiCuJLq6DshCXFZziOXlEKUd207SWLLx9J5WHVXajSwGLI7Mp1Ddx5/tyxyLkLICmicTg/oQIsEig2GPhtVVBAQChYcosCuI/OehOiHKqD+siTuOdFv2rM8HyLbyHJwURslhMlAEh/rxh7KpD39psCHLC8doXgnVFfFlEQw9Vh0S7YuuCLq1x9UTCJQFriCjepICOpIi59XN+I89ouB5v/7WI7e9QNKtTyzJ8rsVFkCA6qt4kYA9Uj53R5BlOsIBIysM2Rz5wmKwAM9LdswrvcajGhAIFB1QEFFkQ6pXqmJQCVVIX9G4PNJtNStdF9dXAPbI5uPbpgnGgHSm6KaXaah4NWxikSxQg/IRWpx8kRyyJ94Ok8Lo1G65RRKw05t6WPyBQNExoigp8srk6qUa4nqSgbce0TSsm7rbXxoN8OZ5vQM2JgeF7Fd3nnrgiBeBHmarOWcMKFvm+L+UJxWbDDYF8ucFjNedupcq80ctIhAoF6BnKlAUD8hc8cp/Bu2rgGvqBg+c3P8IRjfPJZmQVoA96l5RrrQU7PiaFtb89r8eyH9yeeR4YTFU2KOzPGFuOUiibqVH1f0PSPpAoNDYQE8yxTJlTNcZpoCTwZmlpGAZ5/JHPiN5AWmyXMIR5NOrXwhBvObRH4sETsBGeSukVJwP5rxMLjp4kA4fPkydTpfqU9N00aVX8PZV+uqdX6H7TvwJtasP2maBQDEBZZRF7visPKfRnxGVG1nxjbKNJ2WTbjJBd1GGFKboKuoXh//UlUQi4h3xAXn/k0PzNYHFMD87S3sWFmRHaFnM7dlH09MztLayQkvtB+iJwZ/zZjEHZKDAgD7mdHKSQouCmK6NKqDC+SQv/u+OYnI+I6QwBqQa3aOGoEgCdtN4L2cakAPvQsoJsaA8nBjEYsBc+oN+X96oxJTTeKmq1Wore3Li45VP0qn6X+qWgUABgZouCzRmEiYo3iS9G2WHnD9FttUIuYykGcXofnTHUgSLcFfgYbKIZwTrdiMBSjCSD1xMU88ryfLyskzrdvHFF4tg0ha8aZmZVRU6VfsLOpn8NXIJBIoN1PkRZCqcKhxgGpmuj+A0mr4RNtwk27v+snX1mzvCEHlMCodes6Obp550QVMCU7rV6w1a4ObE1NQUBzOwnREDtm8nx+ho5SO0Nv0lxAYC5UGqOHnoOpRoXdRE5LReNrHtNrXtaeDb5/LZTpZpHwMv8lHbXr9HrbU1euL4cVpcWpIXqmBFiMVgaNGjtDjzCVqZ+SyvRZ9DoGTAHRlaZ45gohbqzdTlSTExjzODEM4ZAoSgHvUnU82mNB3wfT30MzSbUzQ9PQ2TIbUafItO9Rgdn/sI3U//L61W7rPwQKC4cFWDq35oThae941A9AYkkdFDmlK232C7LcJz2XJuuQ3SPMxaAEckF190ETWZCBrcjEBvJGaMxvf0Mt5TCKFgQ5bH6C/ovtp/o6PNP6R2I8Y6BMqCCdo0hkxjnhwpOWyQ1+Zx5hnIlqLcBg3QIdH4jkSn26ETJ07S8sqKJBz5Yq5tCAfkgY9y9mon6Pj0J+nhfb9Na0/9Q+oc+Tx15r5Og8YpGlY6kj4QCFyYqDzwuz81XF1boV6vQ8ePH6N6vUqttTY9/PAjdOjgQVpeXhEimN+zh12iFlsUT5w8KVPBze2Z5/B9NDe/h6pTTao2ZujUapvuf+gxJocazczM09LyGi218HlxIm6wsDUCqwRfF+6JpYJHpVgHQdXqNWbchNZaa1Sr1mjv3r2ET5Ljo7sQEBi+rdnpdtM+EMRj2xRGZPh6MegbXwxWkhOWSxkSTSd8hQs9sMgPHa9AtValtbUWb9+lGm+XVPSrxPhEOUaEVng7WFUY6wErS/Lk/PA9jm5HH/2irAibatRtv7KlfvGYF/TpYLtp3r8D3wvFB4aRHucYL7L4x38QhvLBRW7soeNPPCHxmkYfNSNPHCvK2mrzMWDQGsenk/tykj7ni2+VIl9MAIztdD3h42rR7Owsdfh6rK2t8raYGLgqxyRfaOZzj/OCc4jzMDc/jzsFHx6fG0z0w37sH3fCdqdDU9NN+aoZLFD57DvvZ8CCDIZ9vKzD11GG3eLmpJ99h+DjyjjHKDc+9S4bcOFRVtS7Hp+nDuK5vqCeJCweX7U8Op22zHw+w3VMbn7ICyeA4+R7rVweNKNnZmZ5W94DHwPqBY4Vx7C0uCThuPY4NyiH5M1+fMoRZWrzPvDJBcTjeuH8VNiv++9IOtRxyZuBc4enfrguyyvLcn5nZqY5PT6Tz8cpF1dR4bDjx49TA9eX/chT02idx/nEecIxIM8ap8NxopbiPEC/0G845LpW53OGY8KxNFlPpbmA8vJ5xPlEevmaNpcTdQH1MEGm6FPAjtH5ePsXv0hf/epX5QQhIz0ovuByTvnEc4VAAWtMIPgGBeaHRFzXPlyD7RCPA+rxicDJQBiOWo6bCw+gogFQUJxsHJQ8Q+UFP4d/kty/pykHz/nhs93YtyuPnFUUxCBVCesSxPtmv59cCd8MkCxXFoGVexJsVyz8Jy4CAFtP3TFIlppvzivlTMtqYeZsDhP2hXMllZsr1erqqpKgXbvVlVU6yVajKL9VFHXNL67KeqzfGZJBCUXZ+DigxLiOnt+ELewU5WM4bMLuxoP0lONvNFfek7jywWYuh5A8yuTHgORcr+GBoiANiBF+qXuSHa6D5oV8QAhwsT982lGUjNdxgwH5yRb4BL6QhNU76A2L1EMjD8QpMKgof5x63eVz9siH03ld0E/ccx1Ot1Vdwvl0XZHzjusFstYQOWaUE66A8xHCYdcOUuA+JlswKZQ+EXadm50TppYTyQImQSbYGdL4XQofwUXzAwXAxVbFxdOMCjOYTiwLwpmdnaHp5pTeeXgbVEBcHOwTiu0nzQsv4EhZ57wlLZ+cGk4qp0WlEsLixYETBtaWk81+rPtZxsXTk5q7OFxGrdycDj+kF9Et1oGTZntTf7aei7Es0qxSeBp29TeC/LooDbv57XEM+ePdDqR8vODattgyA3l7JcJ5QDhKBL9XSj2vetdy8RLiWMVN/xQoLa4nrhXuXsgXdQaKgzspLKTRI8qtcT56DceBCN1NPlbXs5B8nEPusjhOPr+ZIsGFcALeCMeF9S6XFWF+DlAU5I/jWeO78BoTKiwC2Qznw+qVb6/1WK8Y8tG81OpAnPjtHHq8l8uhx4Adw4f6q35Z4LLAypI6zXllZUXeWXoA2YoeM/RLc+KVcovust/zlF3yItPHw5THDi6++Ag97elPo8MXHZYLiQvK2YqySUaciX+1CqYM0oB1QCgwdWESIe2Qd97hfFGd60wIotScBcx7nFixLHDyUBgUgg8GZxHllRAkxsFwpcI+XCmEATkO2yIOlQ4Mj5OqeTnsYgM4UBat4JyGRQI5gaZf/w+4D/tO9+++7C9FuqUdk4f4tmPJFQgbCTfCksLrefCLtRNANshfxO4eafkYuLYQBMk5FrF0olSqWHq++YeyMUaKNyEM+5BrxVaKEoTeVbUiW0orRnrMeWB1LCgDRyB95tgfwJnqTxXYRJWSjxHkgGM0V9KyH2QJF9kgvWaufr+5SDifB7lJ2c1TrxW2MuFg5CtpcM4Ycj45b90XzkxukXUNz2B+C/N0AHYFUkB5sO80jn9aB0EEdowoA9aZmPVagJzRrENiTY1/EAvWk1OnTlEb7XFWmGnc3a1ZoQekbWUoPFxs5KY7BJYF2i9SodgPQhjwNj3Ob3l5id227Bi6WOU/zEItrpxYLTiOAgeof3CMKBhQehyACPtRJrcIcJB5hpU7AspsImdnDEiO4xBBAO/SSwFIMSBaIARtDGQg+cGR3LChbivbZ7CkAnFlG/W4C2AzubCyogHIT8uzc5A87fyzLyUJr/h+x8FuVXydFYtdpBspkSTSvBCOfxwF8oQl55ahgBPgZiLt9rQO+BmwPLAvJBzHuiANwL+md8mgZ5iFg/W4jYwgGpNCmg+oc1yHUXbAkgngRd0UK5td3DjFcuBrBj1A+13b86pcAOqoKCeuq4ehfwVkxGF6uTmcXZQV69rehzARu1/iMkH55KbIi+TJ6VxXtBmkeoXmmze58WkI9MuIhaF7lTKJH25OEtzBweTyUVucFM4UO8QG2BkSaeeKKptUCtmY1zis2+vY+xUwr/COBTcRuHINB1xIzpPYBVkMuMCIA5nUOD8cjyszIFaJnQDkD1c6/HInAhmklRcb4eDZQXrJ3ID0kr9t62HKlEowKUY3zeBh2FyzU0h+KJ3/Z8AmOM1pdppIJYWvjLnuWEWQQ+J1yW9iAc8MyMvJVUuKHXtZFDhEPXdY0TAty3qMlM297OLawjLE+cY1w3VXQlDBvvU4faOsDFKufL5YPx3kWHQTTan/Un5z5bzmD0bA22FbLp+0+9mvzQLUcbUQlLx4S7suSAclw3boi8FbyWIRcKp8fxnqmN+49FyqcDZWDi+jxbEf+iZhWCQ857f95wWdhOKXbdUygYu02BL7UCtZdUaODTd5z5OF/7QoOA8i4sXkC3oQ6IQC04D1tLdaGR4uxDPCxtgx2HKVSWVpcZGWF5ek4wps2+QmRbPZYOsA+8MdHhYDKyUTCCdg0tALIIdj+eEE+j7E5GEXgItwMJy4fGBeci+PpOR1xMvdAKv451+ahhPhGNGLi442nEDsVxKlYpBwBXzI38uKfABzDL6mJ1az0xM8itGtxuGxKK8iy0/LujNAXiJSUAnhdZxjdODK7lAIKYeeXy6P/tIyAuNlyvIDtLmH76LiXRw8oZBQrqR+nRAP4vd8/LDT8o1mvx5II678ZD1byaD52l0byuUHI2APNpH9KTlA6fGpRpRT2uCW4WCoSod1xCEf1CMA+0Cc+HkfrqDIHOcV6QE/Lrk5sng4ioH0ON+SxvZ5Okg5uMxyAHKQuq00Lbj57lY3jtnzdhdkrVaMlln2mJ4HWYOO4kC1YxDAYw9pLvAOkNgvpFcUwNuaOAFQtl4fbTIQAEwXTssWwsryIpPFElWYDKa4oCAExKFTEulwarO7B4P/UAaYcd6+0wMFw6kfhILe3+zEK7xsLn7Avs5/nJ5PCJOZPCXhMgGyXwcOFrIOeszrgHzhpH8KKXfqQ1QWaZukSFdHwrEFLrKu4bgnl2v7SJsT2AX8VkCtKFkl0SLo+Ze7KwIsXeqqV9ICuD6wJJeW9KbhSoQKi7sY9iTXZhIsjzxGgnIr6vUyjqUbge2LHfhwM4IoYUC4LuNxM7vIR+oXx8sClzdCWmlmMKEJqXE+aEZDyXEO5LxAbFfyZbfmlPS/aTp9dIx1iNzoGN7Hgf0gH1wLPf/ITv1YkcXWnWRleyk/9E8tM336g9IppPy84KYr65weWUK3JJ0kVRf7wC/pVwZUb1S54KyArOSt5SXqouNQLmCNs8MBo48BFxVNBGRM1Gw0aaY5y0rPB1ln/9Q0++vUa7Xp5PETdOLxY/T4ow/R2vJJqicDmsY+ahX2gxRwUpkYEhYpFPYC5WVTny+Odv6ociScQJocfEHQ5MGz9j672AYVDH0Wvq0IFw7p5RCRgaRkwclhQWUAq+vJ5p+InA71uwsP/LZojOYlf9iGRZTF0ks6C5ctxMW6xiHMUum6xdtPgPMssTj/lpe7klEKX4fwRlYwCeE/u5eIv8IWW5qUxYovfT5y75OmHh5Rwlrj82fvwiCdCjZUSFXEtYEr+fFf6vKVyK3D0UfWsBa1DLhmInxd9aaGcBwjNsEW2d4kK+RjARrPriweh0QaKgk9MQNxcu54gRLBL/vBUUER0azEExIuX5vr/OLSYvrUzJ/WYJgFtlHROzJ2Aak3uN0OBWdlBPp68cTygIKCDGB9Q9C+h8Ci9s9ApnnxNqnwDuWLcLyiZUUY+3kF50tIAyIRuBRKajhvOKfeDNKKxALXyqX1n68t4gFJKKmyMMmfz1W1ydZCBQMdWF3Z3K/wSZJ7+JCVuD7FF5V3KpUU4xaarJQDqiV1JoIZJoImPl7FVgHR7PQsNZhIjj36OD36wIOUcAGqKESvTU0mhKkaF3zQ5bzZgmB24L3KBZGmBqdDpayYK52eWMfBclGg/CAGDLrBIzaxKORAVNn1eMyMYhbGRUE4HucgWhk161zDFm5VSDuQ88rWuQwiSiJcnyW9MC7ngcds8qgN2/GGWPSsssDhNCib3HkQyungAtjG24oakIVJGZE3V1YOlLKCHLBtajIyepzOO51Q8aWcqMis2Bg8JKTIYSiDnCM+FhwTTGHZL8SASojzL31AbPXhPJuuysZw/PhxnHqOsU+UEecLpeDtISiHuLoNtsAAHgwA0qPglHLe9PoO0Pck5jnGpGB3WtnlOJC35I9c4PXzzXnbXU/AQThHcu44HkmkueDbSp6cA0egDE5qnIjLwvvmfXWZCNbYollmywaDmhCN841rLKTAhUMZNA+tj9gxHFjW6MwTomOrWK4F8vaTZusoM1yse15IIPWc9wMigDWt9RzHh/L1OAlvy+fJzzdcrfs4z1xX+Nzh/OMYYZ1gXBEAq1r3xbGmR6iHXKX4/GKgIAYa9qnD+t7hcwAiFDJkwdFK88dNCVwgVU4rPAPFl0gmCTkWXVOXCyMszAsq84knnqAvfuFv6Iuf/zwdO3qUDuzZQwszU0wgrKhMPEOQDhNDna2nGh9YldmkwWRUhZ8LjKaGj39ocCIUHiccpZAKzH48+mxwPB5/+gXTSqDKmAri4ObKiW2EoTlMDkYqkF4gEfZLXuJin1op5I6DPHhLuJKnnRnZzveDcmqgravk4ekUug8I/ML0vL+pqYZUTOwvP4BL7wSoQNws43D4szy8nJq/ZMmQfUmYS67cEBwnu27BabyLboN/cXWFofG+TxUtu9xpcM5YMG5lbpZvFlx+7Ef2BU0TsJ/T4HqwI+te+Z18kL9afllZRsqPPM0vzVHeRgldScHLhnSo9H5syAcEIfG8f5ShBuE8xNy3egLR9CADPbdYF5KCrsh+ND8O5XUvjwLp5XpZXlIWS4fzI/vgMK1jWiYpo9VBBdZN4E8F0LLpfrCtun7cWEcdV1Ky8nI+khb7h3WBckHYj3LINUQ88vB2Dk4e7lgOHEAqWPLrvBNkCCVFRwfi0Y68+66v0tfvuZtOnTxBCwuztDA3y5bEFBMBn8zOGlX6bWpw5aijCcGVcQoEwOvS98Ak0WzUaHqqLpVJ+iTk5OGgNQ2GGGOwFIgD63JCRbQy6QVVvxIcCEj7PaBYIhyHbXBiQDRQMhwHhoLLmAsjH5AUyoFtpRziWt44cXyOsgqGPDXfJxX+46ykUkjFgIsInFe+BtgflAR3Cr34evyIRxmkXCxy/LJ/Pb60Qkt+HG5xI8J/nET3a/lCpEyIhx8kbOlRvZBej83SSDqGKQbKJcQM1ys1C9LPzkyrJcp3PzzClkoq1knOIuQM/fg4azkXcmzYv5SB94cyWDkQrwqFtHYeeUXC2XVlx/Yojx+j5COix1fD9QcZyI1Iv/I+OzOT3pzSvjDkz2lx7ZGHWllWTt6PnnsTrjtQwm6nLZ3cOE4uhByHnnucRz0mOV+I4zIqobHyyvnRc6TpsC/dnwjKn3P5Z8fveavr5wPbO+HKOeANcA2drFBeH2ckljbOm4jkpRUdByTmjgEEgIvlZJD3Y0GpYLJ7RyVOHrCwMC8nGDuZn5um+ZkmHwibKt01Zp8OXwy2FIQY+jTNTQr0OTRwkbgwIAMQBC6CXDhugiDbCpcLF5SjJA38oDNJx4I0COOjUJfLiBPTMCXnTaQi9jCUlQVmMx+spK/wicPFwTpHcEIWVFoOk/3wtpn4hUUci1w0TsNhEo9yWFny8bJuFxg0qvGet26P40B5tcJlx6V56/nANjj+Kam0lp/E8XnjeJyfdBvfL8TLwYI4bCfHjuNEOXJhnn60UiKN+r38IFKUY4rJ3IkVhO2C8LnZab4xoH3N14C3xfHBD4LHdZZyyn7YtXMs+5R9sInNrliUtk8/Lilvbjs/LpwDWKE4d1AGuc58PXFe5HrgmP04+C8rT41vSnUpbxM3JdQb3kjLgXqnyod8uErKOq6HHCcfu9Qz5IXzwHE4j+vqEbbDflmwntY9lEuOGecfrl0D5GHbiyC9hEPBzY/jtrL5+ZMbKu8EYZLG9q9l0G04Ss8BysR/uBY4d2k+SANFBzE41O8kwEzGBVJGw8H6uraPkA6sA+DxJdj2yisvp8suu0R2iJM9hZ1iR3wHrKF/gZM38PH9YU/6HiAgCsQnHAZLQtMOmTCUOEAsiENFRjyhr0KaIui7sIPidYhWKI7jsJlmg6b5ouOCDDot6rRWuE25ypt3JE/EwUqB5dKcUmtlml1UFOkotWYPtlcXlYRPMPYhfr4QfDKxf7i6bmksHtvgGBAuccgT4exHGYUUWWSdd4Qml+yP09Cwy/VL+2WkouD88DEiD80feRCfU1UILXOWX1bGTGQd8RyHiom807IhvUi+3J4fjlH3qRWHt2XXz7uE8TUTF+G4BryzWbbwYDWC5HGep7lO4LzXcWfifUs63g+OAYL9yvllwfmXa2BlTwVhXEYpN2/j51D8fh44rsL1CPlgey2rHh/yaPDxSHn4mqOezjTrchNDPZjieqcEo/uSfNmPdRHOA+tIgzxk33J8uBnO0N6FuSwvjtfrrPUU+eWvE+rvNBMKzskMp59BHWQ/jk9IgnVOzi90LXcMfo6mbL+yD5SHpellwvnBMZiLPHV7bKvnHunSc4ZjtWNM0IkB80GfQmg7FnAyGBHOyK0G9CvAwoB5C2tjZXVZzMZLLrmYnnrF5TTDdwowqlRkLsw0n8km77WJiwoWJyYSJghIs8oHykqAzsmEFQF9EU4iOCikUWJAxyi7rDx1zhcnpVlHhdKLhTA56ApbKO012QYVucKWSr/bYrcrBy7lsAuGbZAeT05wcpAnTtqQt0F65Ic+EskbZZGLwuXH/jgv3wYCJZUwnFxOD8KD+IVBPOJAlHBlO1QODlcF5RPP+0W5QY6DbptX18RlU4f9LT0OnCdOg8rtF9Xz1jx9P3zhUQasm3g5UX45P5wG6fUcanqUIz0+Dgc5IF4qtcTzNeP9gkSdTPHUCdI0F2mhmFifZaVjx/JC5UbF1BuB7n+o1xFl47yRv54/KzeOIT0OP89cDnZx/uSJF7tS0Xm79PriHHA61CXkKedDjkvzkrJx+aGQqpjsB2lZvnJe7HwiTMrFdRekKOXjciMe/qqEDWmOj3WBSQH5qZLq9cHxSSe8lB/1jsvBItcMx27HL8L+OueN84PzhPKjDur1wblR5YYr14ELJ/uS/eD8675x/XCsciw1nDvdp5A754l673VGzq2cUz0/CRQcZKDNgar4RflzJKDr7leSACHgsQysBrRj8EhqmtuU+EbFU55yKbNlXUwhjHhEQWb57j3LZ1h2zgXCATdE4Uzp+CTU5SSoIBwXZJoPqCknkk+MKAMuQtfirCJJWlXEKasAeEwq/Rq9Ft9oW6xoXD4+C/u4ebNntklzws4w//ik8WGgWTPLYagoyBNPU6jfoipIivcnlQsXCBeGjxcXCGUA0ekFVb9WYiuT+VHxUS6sw99AWVmmUVmsQszwlZmxMiAPISvszyoFSLG7tkydlSUhPZBdo8aEi8qA/fIxI285XyiPXOBsn5loeZEniBj7kHApc0bWqjwQVGhsg+PD8bDgXKD8fD5xDNOiAHocagWa4nKZZnkFioLjwjmu8jWUp1N8DuV6yXVjsWuIbXEMKE8jwTm0eE6L/ePpVnq8fN10f6jYuj+kw35QLsmTt5XrwHEaz/uFn8ORBuVCPRDFxbHwMXmdxDHj/Pr5QT4Sh/op67r/GuuKk4+cM06nN5O+xCMPKK+cI5x/Pk7UcdRjqevYls8Hzo2E8fnB/qp8zVHnkTfKrPoCl8shJMj541jlOigJQcf0XKtu+DmAX+sj1rNzJeSGc+dhFp6kL7SYoisxwGzNyECh63ARh95zNB0c6Kg7dOggXXToEO0/sI/z4WScN8YcwAydm5liNmWTkncqLCiVg10+EU0+UXXSkzGDk8cHg8qnFYRJpcEnlguPdLN8EppcOebYhR/pcPCzfFKwLU7QDG/HWiThOFCcXOSzZ6ZB+xa43csnDydonmshlBH5Ia+FmbqkwcVER2mFyQHlkoogSqMnGRcTFxgnf8bKgXxUSUw5OZ37UXZxWVA2WeftsZ3LHGeI7ffPT0u5pXLgmDkPVBwoU29tidqrp7hZtCJEh31i/1AmKA3yl/ykHAiDonE4r/ONjCuQlhfnCJUTx4ZjQpn40KXMUDrkp/vmfCQ9b4fjk0quyow0OI9q/rILYkP+5sd+ocTYbp4z1fPMdaKzyny7zNeeiZrjUVbst8HndJrdOda2eS6sbC+VWs+VnD8u44woGcrIdQVlQN1gF+XG/ud4J7iuSFPj40Mc8vT6o+SiLs7VPCeUm4SUGXlwnUJ5WFC2Oc5Y9o30OA8NPVeoa7NSVtQhPWd6PVgxneT5zr1ndorrVYMWOBOE4dzNcTzOqZ5HXDct2xTXMb85onx6Q9IbqBATjoHPhxwD0rMfZcf5Qv2BzE83uBnD67Aa5LxiW9Yl25eWE+cT9UL9CNPrqoLjTdAckGeY8vxc+xhc0LRAByP6E7COPgb0WMKakGfNRhSIw1yRhw4ekEEfOmEJs58QDRMBb4MeYM6KSYJJhC8ixBkZBy4VPD1oHIBeOBRcFYcvBF94rby5kynrcPXkNXByOT9cUFdipMUFxAXTsC5bBC3Zt+RlFUCJRRm9ymkSsRi4+cIXSMrI5QVx9FpLolR+IuVk4gTjmPgYcHGxnVZsZnVcFJQTJ59dlK/G5fSLgAoNF/uAMiasNJ2VU9RZXaQBWwcDViZYPrAaWsunaHXxhBAXzpkQiuWB45NjQl68X5QDeXrFEj+XBfsH6Ql5ohJKnFbKmbqWCYTKWUtemXAYh4MkQVZQQuxXKje7SgpQHpxHWBCqzHI3Zj/OI44Bx0PcJMK+pxKUEecXfj1P07wfxOEcN1GpOX8hVJTBrnl6TBwPksQxqTLqdUQ+UCwoNLZFmb2ONOXOCD/HcVldqYS8YD2ifnI8rgXSC6mgvkk59NhQb6S+yjHydWCP3pWZsDhPkAZc1Du5RrwN8sQx4FwhndxwRPQa4Ri0jHrtqmhW4gYlzeB2ShioqwtMANgGuoFrDoKAoA66BSe6xHmBHHAucI7nQZJ8TdJjwLVjv1hZXC4cTyPp0/8PAaMLF907BQkAAAAASUVORK5CYII=;" vertex="1" parent="1">
          <mxGeometry x="294" y="40" width="262" height="683" as="geometry" />
        </mxCell>
        <mxCell id="gPWtYPe_malXiGD7fy5B-2" value="" style="rounded=0;whiteSpace=wrap;html=1;fillColor=none;strokeColor=#FFE926;strokeWidth=10;" vertex="1" parent="1">
          <mxGeometry x="302" y="228" width="178" height="59" as="geometry" />
        </mxCell>
      </root>
    </mxGraphModel>
  </diagram>
</mxfile>
